<svg width="41" height="26" viewBox="0 0 41 26" fill="none" xmlns="http://www.w3.org/2000/svg">
<path d="M14.5668 22.9512C14.304 22.812 14.0582 22.709 13.8039 22.6425C13.5496 22.5759 13.2783 22.5456 12.9986 22.5335C12.4391 22.5153 11.8373 22.588 11.2524 22.6909C10.6675 22.7938 10.1166 22.9149 9.70121 23.0178C9.29433 23.1147 9.02308 23.1934 9.02308 23.1934C9.02308 23.1934 9.28586 23.3024 9.70969 23.4295C10.1335 23.5566 10.7184 23.7019 11.3541 23.7806C11.9899 23.8593 12.6765 23.8714 13.2783 23.7443C13.8802 23.6232 14.3887 23.3629 14.5583 22.9452L14.5668 22.9512Z" fill="#FFE39B"/>
<path d="M12.7867 21.1108C13.0155 21.474 13.3377 21.8312 13.77 22.0613C13.9819 22.1763 14.2277 22.261 14.482 22.2974C14.7363 22.3337 15.016 22.3216 15.2788 22.2429C15.2957 21.807 15.1262 21.468 14.8634 21.1652C14.6007 20.8686 14.2362 20.6083 13.8462 20.3843C13.4648 20.1603 13.0749 19.9786 12.7782 19.8454C12.4815 19.7123 12.2781 19.6335 12.2781 19.6335C12.2781 19.6335 12.2781 19.682 12.295 19.7607C12.3035 19.8394 12.3289 19.9605 12.3544 20.0997C12.4222 20.3782 12.5409 20.7475 12.7697 21.1108H12.7867Z" fill="#FFE39B"/>
<path d="M8.60773 22.0794C9.19262 22.0613 9.70121 21.8978 10.0657 21.5527C9.7775 21.1834 9.33672 20.9836 8.81117 20.8686C8.28562 20.7536 7.67531 20.7233 7.07348 20.7112C6.47164 20.6991 5.87828 20.7112 5.42902 20.7112C4.97129 20.7172 4.68309 20.7233 4.68309 20.7233C4.68309 20.7233 4.74242 20.7657 4.84414 20.8383C4.94586 20.9049 5.09844 21.0078 5.28492 21.1168C5.66637 21.3408 6.20039 21.6011 6.78527 21.7888C7.37863 21.9826 8.02285 22.1036 8.59926 22.0794H8.60773Z" fill="#FFE39B"/>
<path d="M9.71816 20.4387C10.0487 20.7354 10.5065 20.9352 11.0829 20.911C11.3118 20.5114 11.2778 20.13 11.1168 19.7788C10.9557 19.4277 10.676 19.1068 10.3963 18.8284C10.1081 18.5499 9.81988 18.3137 9.60797 18.1382C9.50625 18.0534 9.41301 17.9868 9.35367 17.9384C9.29433 17.89 9.26043 17.8657 9.26043 17.8657C9.26043 17.8657 9.24347 17.9081 9.20957 17.9868C9.18414 18.0655 9.15023 18.1745 9.11633 18.3077C9.05699 18.5801 9.02308 18.9494 9.11633 19.3429C9.19262 19.7304 9.38758 20.13 9.71816 20.4327V20.4387Z" fill="#FFE39B"/>
<path d="M2.58938 17.4601C2.17403 17.3693 1.91125 17.3148 1.91125 17.3148C1.91125 17.3148 1.93668 17.3633 1.98754 17.448C2.04688 17.5267 2.12317 17.6417 2.23336 17.781C2.34356 17.9142 2.47071 18.0716 2.62328 18.235C2.69957 18.3198 2.77586 18.3985 2.86063 18.4833L2.92844 18.5499L3.01321 18.6286C3.07254 18.6831 3.13188 18.7315 3.19121 18.786C3.67438 19.1977 4.26774 19.5064 4.85262 19.6396C5.4375 19.7728 6.00543 19.7304 6.48859 19.4701C6.35297 19.0523 6.02238 18.7739 5.5816 18.5256C5.47141 18.4651 5.35274 18.4046 5.23406 18.344C5.11539 18.2835 4.98824 18.229 4.85262 18.1745C4.72547 18.114 4.58985 18.0595 4.45422 18.005C4.32707 17.9566 4.19992 17.9081 4.0643 17.8657C3.53875 17.6902 3.00473 17.5509 2.58938 17.4601Z" fill="#FFE39B"/>
<path d="M6.6327 18.1927C6.78527 18.5499 7.14977 18.8465 7.70074 18.9373C8.08219 18.6043 8.20934 18.235 8.23477 17.89C8.26019 17.5449 8.20086 17.218 8.15 16.9395C8.13305 16.8244 8.06523 16.6246 8.0059 16.4733C7.94656 16.3159 7.87875 16.1706 7.81094 16.0495C7.7516 15.9284 7.69227 15.8316 7.64988 15.765C7.61598 15.6984 7.59055 15.656 7.59055 15.656C7.59055 15.656 7.54816 15.6923 7.48883 15.765C7.42102 15.8376 7.34473 15.9345 7.25148 16.0616C7.07348 16.3098 6.85309 16.661 6.70051 17.0424C6.65813 17.1392 6.6327 17.2361 6.59879 17.339C6.57336 17.4298 6.55641 17.5267 6.53945 17.6236C6.53945 17.7204 6.53945 17.8173 6.54793 17.9142C6.56488 18.011 6.59031 18.1019 6.62422 18.1927H6.6327Z" fill="#FFE39B"/>
<path d="M1.96211 16.0011C2.05536 16.0858 2.16555 16.1585 2.28422 16.2251C2.39442 16.2917 2.51309 16.3583 2.63176 16.4128C3.11492 16.6307 3.64047 16.7276 4.22535 16.6065C4.27621 16.4006 4.25078 16.213 4.17449 16.0374C4.14059 15.9526 4.08125 15.8679 4.02192 15.7831C3.96258 15.7044 3.87781 15.6257 3.81 15.547C3.49637 15.2382 3.01321 14.9719 2.53004 14.7297C2.05536 14.4875 1.56371 14.2817 1.18227 14.1303C0.792348 13.979 0.546528 13.8882 0.546528 13.8882C0.546528 13.8882 0.555005 13.9427 0.588911 14.0335C0.622817 14.1243 0.673676 14.2454 0.749965 14.3967C0.894067 14.6994 1.0975 15.099 1.42809 15.4683C1.58914 15.656 1.76715 15.8376 1.96211 16.0011Z" fill="#FFE39B"/>
<path d="M5.09844 15.8376C5.20863 16.0011 5.37817 16.1464 5.60703 16.2614C6.13258 16.0434 6.43774 15.7226 6.59031 15.3714C6.6327 15.2867 6.65813 15.1959 6.68356 15.1051C6.69203 15.0627 6.70898 15.0142 6.71746 14.9719C6.71746 14.9234 6.73441 14.8811 6.74289 14.8326C6.7768 14.6449 6.78527 14.4633 6.7768 14.2817C6.74289 13.9245 6.71746 13.5915 6.64965 13.3494C6.62422 13.2283 6.59031 13.1254 6.56488 13.0588C6.54793 12.9861 6.53945 12.9498 6.53945 12.9498C6.53945 12.9498 6.48859 12.9801 6.41231 13.0406C6.32754 13.1011 6.22582 13.1859 6.09867 13.2888C5.85285 13.5068 5.5477 13.8155 5.2934 14.1727C5.05606 14.5239 4.90348 14.9295 4.91195 15.3048C4.91195 15.4017 4.92891 15.4925 4.96281 15.5773C4.99672 15.6681 5.0391 15.7529 5.08996 15.8316L5.09844 15.8376Z" fill="#FFE39B"/>
<path d="M0.953403 12.5865C1.02969 12.6834 1.10598 12.7742 1.19075 12.859C1.28399 12.9437 1.38571 13.0224 1.48743 13.0951C1.90278 13.3796 2.40289 13.5491 3.00473 13.5068C3.10645 13.313 3.14035 13.1193 3.10645 12.9437C3.0895 12.8529 3.06407 12.7621 3.02168 12.6774C2.9793 12.5865 2.94539 12.5018 2.88606 12.417C2.77586 12.2415 2.62328 12.0719 2.44528 11.9085C2.35203 11.8237 2.25879 11.745 2.17403 11.6603C2.08078 11.5816 1.98754 11.5028 1.88582 11.4241C1.4959 11.1154 1.05512 10.8308 0.749965 10.6189C0.436333 10.401 0.215942 10.2678 0.215942 10.2678C0.215942 10.2678 0.215942 10.4797 0.232895 10.8066C0.249849 10.9701 0.292231 11.1578 0.343091 11.3576C0.36852 11.4605 0.402427 11.5634 0.436333 11.6663C0.470239 11.7692 0.504145 11.8782 0.563481 11.9811C0.673676 12.193 0.792348 12.3989 0.944926 12.5926L0.953403 12.5865Z" fill="#FFE39B"/>
<path d="M4.42879 13.2767C5.0052 13.1375 5.38664 12.865 5.64094 12.5502C5.70875 12.4715 5.75961 12.3928 5.81047 12.3081C5.86981 12.2233 5.91219 12.1385 5.95457 12.0538C6.03934 11.8843 6.09867 11.7087 6.14106 11.5392C6.18344 11.3697 6.2343 11.2062 6.25973 11.0548C6.27668 10.9761 6.28516 10.9035 6.28516 10.8369C6.28516 10.7703 6.29363 10.7037 6.31059 10.6432C6.34449 10.4071 6.34449 10.2557 6.34449 10.2557C6.34449 10.2557 6.1241 10.3405 5.80199 10.5039C5.7257 10.5463 5.64094 10.5887 5.5477 10.6432C5.45445 10.6916 5.36969 10.7521 5.27645 10.8066C5.09844 10.9277 4.92043 11.0609 4.74242 11.2123C4.65766 11.291 4.57289 11.3697 4.4966 11.4484C4.4627 11.4907 4.42031 11.5331 4.38641 11.5755C4.3525 11.6179 4.3186 11.6603 4.29317 11.7026C4.17449 11.8782 4.08125 12.0598 4.03039 12.2415C4.00496 12.3323 3.98801 12.4231 3.99649 12.5139C3.99649 12.6047 4.02192 12.6955 4.05582 12.7803C4.12364 12.9558 4.25078 13.1193 4.44574 13.2585L4.42879 13.2767Z" fill="#FFE39B"/>
<path d="M2.34356 8.09437C2.20793 7.91275 2.06383 7.73113 1.91973 7.56161C1.77563 7.39209 1.64 7.24074 1.52981 7.11361C1.30094 6.85328 1.13989 6.68376 1.13989 6.68376C1.13989 6.68376 1.05512 6.8896 0.961879 7.20442C0.927973 7.36788 0.894067 7.55556 0.877114 7.75534C0.868637 7.85826 0.860161 7.96118 0.851684 8.07016C0.851684 8.17913 0.860161 8.28811 0.877114 8.40313C0.902543 8.62714 0.944926 8.85114 1.02122 9.06304C1.10598 9.27493 1.22465 9.47472 1.36875 9.65029C1.65696 10.0014 2.11469 10.2436 2.70805 10.3041C2.78434 10.2194 2.84367 10.1286 2.88606 10.0438C2.92844 9.95299 2.97082 9.86823 2.98778 9.77742C3.03016 9.5958 3.01321 9.41418 2.94539 9.2265C2.89453 9.03882 2.81825 8.85114 2.69957 8.65741C2.58938 8.46973 2.44528 8.276 2.31813 8.08832L2.34356 8.09437Z" fill="#FFE39B"/>
<path d="M5.59008 9.72899C5.76809 9.60185 5.92067 9.46261 6.04781 9.31125C6.19192 9.16596 6.31059 9.0146 6.4123 8.86325C6.46316 8.7906 6.50555 8.7119 6.55641 8.63925C6.60727 8.5666 6.64965 8.49395 6.69203 8.42735C6.7768 8.28811 6.82766 8.16097 6.88699 8.052C7.00566 7.83405 7.05652 7.68269 7.05652 7.68269C7.05652 7.68269 6.8107 7.72507 6.44621 7.82194C6.07324 7.9188 5.62399 8.08227 5.17473 8.30627C5.06453 8.36076 4.94586 8.4213 4.85262 8.48789C4.7509 8.55449 4.65766 8.62108 4.56442 8.69373C4.38641 8.83903 4.22535 8.99644 4.11516 9.16596C4.01344 9.33547 3.9541 9.51104 3.9541 9.69267C3.9541 9.78348 3.96258 9.86823 4.00496 9.95905C4.04735 10.0499 4.09821 10.1346 4.17449 10.2194C4.77633 10.177 5.21711 9.97721 5.5816 9.72899H5.59008Z" fill="#FFE39B"/>
<path d="M3.82696 6.96225C3.90324 6.8896 3.97106 6.8109 4.02192 6.72614C4.07278 6.64138 4.10668 6.55662 4.13211 6.46581C4.15754 6.375 4.16602 6.28419 4.18297 6.18732C4.19992 5.99964 4.18297 5.79986 4.14059 5.59402C4.09821 5.38818 4.04735 5.18839 3.97106 4.98255C3.82696 4.57692 3.6659 4.18946 3.5218 3.89886C3.3777 3.60826 3.28446 3.42058 3.28446 3.42058C3.28446 3.42058 3.24207 3.46296 3.18274 3.54772C3.1234 3.63248 3.03864 3.74751 2.95387 3.89281C2.75891 4.17735 2.57243 4.58903 2.44528 5.01888C2.39442 5.23682 2.36051 5.46083 2.36051 5.67878C2.36051 5.78775 2.36899 5.89672 2.39442 5.99964C2.41985 6.10862 2.44528 6.20548 2.48766 6.30235C2.57243 6.49608 2.68262 6.67165 2.8691 6.82301C3.04711 6.97436 3.27598 7.09544 3.54723 7.1802C3.65742 7.1136 3.74219 7.04096 3.81848 6.96225H3.82696Z" fill="#FFE39B"/>
<path d="M8.5823 5.40634C8.63316 5.3458 8.65859 5.31553 8.65859 5.31553C8.65859 5.31553 8.59078 5.31553 8.48059 5.31553C8.36191 5.31553 8.20934 5.32764 8.01437 5.3458C7.81941 5.36396 7.59902 5.38818 7.3532 5.43056C7.23453 5.44872 7.10738 5.47294 6.98023 5.49715C6.86156 5.52742 6.73441 5.55769 6.60727 5.59402C6.36145 5.66667 6.09867 5.75142 5.87828 5.8604C5.65789 5.96937 5.45445 6.09651 5.28492 6.23576C5.20016 6.30235 5.13235 6.38106 5.07301 6.45976C5.02215 6.53846 4.97129 6.62322 4.94586 6.70798C4.91195 6.79274 4.90348 6.88355 4.90348 6.97436C4.90348 7.06517 4.93738 7.16204 4.97977 7.25285C5.27645 7.28917 5.55617 7.27707 5.80199 7.24074C6.04781 7.19836 6.29363 7.13177 6.51402 7.04701C6.62422 7.00463 6.72594 6.95014 6.82766 6.90171C6.87852 6.87749 6.9209 6.84722 6.97176 6.81695C7.02262 6.78668 7.07348 6.76247 7.11586 6.73219C7.30234 6.61717 7.47187 6.49003 7.62445 6.36289C7.78551 6.23576 7.92961 6.10862 8.04828 5.98754C8.08219 5.95727 8.10762 5.92699 8.13305 5.89672C8.16695 5.86645 8.19238 5.83618 8.21781 5.81197C8.27715 5.75748 8.32801 5.70299 8.37039 5.65456C8.46363 5.55769 8.53144 5.47294 8.5823 5.41239V5.40634Z" fill="#FFE39B"/>
<path d="M5.46293 4.3287C5.71723 4.23789 5.91219 4.11075 6.05629 3.96546C6.20887 3.82621 6.31906 3.6567 6.39535 3.47507C6.54793 3.11788 6.57336 2.69409 6.57336 2.28241C6.57336 2.17949 6.57336 2.07657 6.55641 1.97365C6.55641 1.87678 6.53945 1.77386 6.53098 1.68305C6.51402 1.49537 6.48859 1.31375 6.46316 1.16239C6.42078 0.865741 6.36992 0.665954 6.36992 0.665954C6.36992 0.665954 6.31906 0.702279 6.2343 0.768875C6.14953 0.83547 6.03086 0.932336 5.90371 1.05947C5.77656 1.18661 5.62399 1.33191 5.47988 1.50142C5.34426 1.67094 5.20016 1.85862 5.08149 2.0584C4.96281 2.25819 4.8611 2.46403 4.79328 2.67593C4.72547 2.88782 4.70004 3.09972 4.71699 3.2995C4.7509 3.70513 4.97977 4.06838 5.45445 4.3287H5.46293Z" fill="#FFE39B"/>
<path d="M9.67578 4.11076C9.87074 4.00783 10.0572 3.91097 10.2098 3.80805C10.3709 3.70513 10.5234 3.61432 10.6336 3.52956C10.7523 3.4448 10.854 3.37821 10.9218 3.32372C10.9896 3.27529 11.0236 3.24501 11.0236 3.24501C11.0236 3.24501 10.7777 3.20264 10.3793 3.17842C10.1844 3.16631 9.96398 3.16026 9.70969 3.16026C9.45539 3.16026 9.19262 3.17237 8.92984 3.20264C8.39582 3.25712 7.85332 3.39031 7.43797 3.60826C7.23453 3.72329 7.065 3.85648 6.94633 4.00784C6.83613 4.16524 6.7768 4.34687 6.79375 4.5406C7.3532 4.71617 7.87875 4.69801 8.35344 4.60114C8.59926 4.55271 8.82812 4.48006 9.04851 4.3953C9.2689 4.31054 9.48082 4.21368 9.6673 4.11076H9.67578Z" fill="#FFE39B"/>
<path d="M8.59926 20.3722C10.1844 21.3105 12.117 21.9523 14.0073 22.4972C15.5585 22.9452 17.5505 23.6777 19.5764 24.3618C17.7539 24.7675 15.9569 25.1004 14.5074 25.2699C14.3209 25.2942 15.2873 25.9964 15.4737 25.9601C17.1521 25.5969 18.8559 25.161 20.5343 24.6766C22.3652 25.2699 24.1792 25.7845 25.671 25.9601C25.8575 25.9843 26.4424 25.2699 26.2559 25.2457C24.8403 25.0762 23.2044 24.7796 21.4921 24.3921C24.3063 23.5506 27.0188 22.594 29.3583 21.6798C31.9013 20.687 33.8085 19.2824 35.0715 17.4177C36.2328 15.6863 37.0551 13.7731 37.1737 11.854C37.3433 9.19623 36.0887 6.58084 34.1476 4.34081C33.5797 3.68697 32.9439 3.02707 32.2404 2.42165C32.2997 2.25214 32.3082 2.08868 32.2658 1.93127C32.2149 1.74964 32.1217 1.57407 31.9691 1.41667C31.6724 1.0958 31.1978 0.83547 30.7061 0.641738C30.2145 0.448006 29.7059 0.326923 29.316 0.260328C29.121 0.224003 28.9684 0.20584 28.8582 0.199786C28.7989 0.199786 28.7565 0.193732 28.7311 0.187678C28.7056 0.187678 28.6887 0.187678 28.6887 0.187678C28.6887 0.187678 28.6887 0.199786 28.7057 0.217949C28.7226 0.236111 28.7396 0.266382 28.765 0.296652C28.8158 0.369302 28.8837 0.466168 28.9769 0.587251C29.1549 0.829416 29.4092 1.14423 29.6974 1.45299C29.8415 1.6104 30.011 1.7557 30.1806 1.89494C30.2653 1.96154 30.3586 2.02813 30.4518 2.08868C30.5451 2.14922 30.6383 2.20976 30.74 2.25819C30.9435 2.35506 31.1639 2.43981 31.4097 2.48219C31.5962 2.51246 31.7911 2.53063 31.9946 2.51852C33.3508 3.66275 34.4528 4.9886 35.3004 6.32051C36.3769 8.01567 36.9449 9.86218 36.8855 11.7269C36.8177 13.755 35.8683 15.8194 34.5969 17.6236C33.6051 19.0281 32.1556 20.1724 30.3077 21.026C28.6548 21.7888 26.8408 22.364 25.0438 22.9209C23.696 23.3387 22.0939 23.7685 20.4664 24.1499C16.9826 23.3205 13.3461 22.1944 10.8286 21.1774C9.51473 20.6446 8.31953 19.9968 7.32777 19.1734C6.34449 18.3501 5.63246 17.3754 5.06453 16.3825C3.97953 14.4936 3.29293 12.5381 3.46246 10.4858C3.65742 8.09437 4.97129 5.80591 6.8107 3.82016C7.28539 3.31161 7.79398 2.80306 8.34496 2.32479C8.5484 2.33084 8.73488 2.31873 8.91289 2.28846C9.15871 2.24608 9.37062 2.16132 9.58254 2.06446C9.68426 2.01603 9.7775 1.95548 9.87074 1.89494C9.96398 1.8344 10.0572 1.76781 10.142 1.70121C10.3115 1.56197 10.4726 1.41061 10.6252 1.25926C10.9218 0.950499 11.1677 0.635684 11.3457 0.393519C11.4389 0.272436 11.5067 0.169516 11.5576 0.10292C11.583 0.0665954 11.6 0.0423789 11.6169 0.0242165C11.6254 0.00605413 11.6339 0 11.6339 0C11.6339 0 11.6169 0 11.5915 0C11.5661 0 11.5237 0 11.4643 0.0121083C11.3541 0.0242165 11.1931 0.0423789 11.0066 0.0787037C10.6252 0.145299 10.1166 0.266382 9.61644 0.460114C9.1248 0.653846 8.65012 0.914174 8.35344 1.23504C8.20086 1.39245 8.09914 1.56802 8.05676 1.74964C8.01437 1.901 8.02285 2.06446 8.08219 2.22792C6.78527 3.32372 5.71723 4.58903 4.88652 5.8604C3.86086 7.42842 3.24207 9.12358 3.14883 10.849C3.04711 12.8348 3.80153 14.7418 4.84414 16.5641C5.68332 18.0292 6.88699 19.3611 8.59926 20.3843V20.3722Z" fill="#FFE39B"/>
<path d="M28.9769 23.9865C29.6126 23.9078 30.1975 23.7625 30.6213 23.6353C31.0452 23.5082 31.308 23.3992 31.308 23.3992C31.308 23.3992 31.0367 23.3205 30.6298 23.2236C30.2145 23.1207 29.6635 22.9996 29.0871 22.8967C28.5022 22.7938 27.9004 22.7212 27.3409 22.7393C27.0612 22.7454 26.7984 22.7817 26.5357 22.8483C26.2814 22.9149 26.0355 23.0118 25.7728 23.1571C25.9423 23.5748 26.4509 23.8351 27.0527 23.9562C27.6546 24.0833 28.3496 24.0712 28.9769 23.9925V23.9865Z" fill="#FFE39B"/>
<path d="M25.849 22.4911C26.1033 22.4548 26.3407 22.37 26.5611 22.255C26.9934 22.0249 27.324 21.6677 27.5444 21.3045C27.7732 20.9412 27.8919 20.5719 27.9597 20.2934C27.9936 20.1542 28.0106 20.0392 28.019 19.9544C28.0275 19.8757 28.036 19.8273 28.036 19.8273C28.036 19.8273 27.8326 19.906 27.5444 20.0331C27.2477 20.1663 26.8578 20.354 26.4763 20.5719C26.0949 20.7959 25.7219 21.0502 25.4591 21.3529C25.1964 21.6556 25.0353 21.9947 25.0523 22.4306C25.315 22.5093 25.5948 22.5214 25.849 22.485V22.4911Z" fill="#FFE39B"/>
<path d="M33.2576 20.911C32.6557 20.9231 32.0454 20.9534 31.5199 21.0684C30.9943 21.1834 30.5535 21.3832 30.2653 21.7525C30.6214 22.0976 31.1384 22.261 31.7233 22.2792C32.3082 22.2974 32.9524 22.1763 33.5373 21.9886C34.1306 21.7949 34.6647 21.5406 35.0376 21.3166C35.2241 21.2076 35.3767 21.1047 35.4784 21.0381C35.5801 20.9655 35.6395 20.9231 35.6395 20.9231C35.6395 20.9231 35.3513 20.9231 34.8935 20.911C34.4443 20.911 33.8509 20.8989 33.2491 20.911H33.2576Z" fill="#FFE39B"/>
<path d="M29.2566 21.1108C29.8246 21.135 30.2908 20.9352 30.6214 20.6385C30.9519 20.3358 31.1469 19.9423 31.2232 19.5488C31.2995 19.1613 31.274 18.786 31.2147 18.5135C31.1893 18.3803 31.1554 18.2653 31.1215 18.1927C31.096 18.114 31.0706 18.0716 31.0706 18.0716C31.0706 18.0716 31.0367 18.0958 30.9774 18.1442C30.9096 18.1927 30.8248 18.2593 30.7231 18.344C30.5112 18.5135 30.223 18.7496 29.9348 19.0342C29.655 19.3127 29.3753 19.6336 29.2142 19.9847C29.0617 20.3358 29.0193 20.7172 29.2481 21.1168L29.2566 21.1108Z" fill="#FFE39B"/>
<path d="M37.1483 18.9858C37.2076 18.9373 37.267 18.8828 37.3263 18.8284L37.4111 18.7496L37.4789 18.6831C37.5637 18.5983 37.6484 18.5135 37.7162 18.4348C37.8688 18.2714 37.996 18.114 38.1062 17.9808C38.2079 17.8476 38.2926 17.7325 38.352 17.6478C38.4028 17.563 38.4283 17.5146 38.4283 17.5146C38.4283 17.5146 38.1655 17.5691 37.7501 17.6599C37.3433 17.7507 36.8008 17.89 36.2837 18.0655C36.1481 18.1079 36.0209 18.1563 35.8938 18.2048C35.7581 18.2593 35.6225 18.3198 35.4954 18.3743C35.3682 18.4288 35.2326 18.4893 35.1139 18.5438C34.9953 18.6043 34.8681 18.6588 34.7664 18.7194C34.3256 18.9676 33.995 19.2461 33.8594 19.6638C34.3426 19.9241 34.9105 19.9665 35.4954 19.8333C36.0803 19.7001 36.6736 19.3914 37.1568 18.9797L37.1483 18.9858Z" fill="#FFE39B"/>
<path d="M33.639 17.2482C33.4864 16.8608 33.266 16.5157 33.0796 16.2675C32.9863 16.1403 32.91 16.0434 32.8422 15.9708C32.7744 15.8981 32.7405 15.8618 32.7405 15.8618C32.7405 15.8618 32.7151 15.8981 32.6812 15.9708C32.6388 16.0374 32.5794 16.1343 32.5201 16.2553C32.4608 16.3764 32.393 16.5157 32.3251 16.6791C32.2658 16.8305 32.198 17.0303 32.181 17.1453C32.1302 17.4177 32.0708 17.7507 32.0963 18.0958C32.1302 18.4409 32.2489 18.8102 32.6303 19.1432C33.1813 19.0524 33.5458 18.7557 33.6983 18.3985C33.7322 18.3077 33.7662 18.2169 33.7831 18.12C33.7916 18.0231 33.8001 17.9263 33.7831 17.8294C33.7746 17.7325 33.7492 17.6357 33.7238 17.5449C33.6983 17.448 33.6644 17.3451 33.6221 17.2482H33.639Z" fill="#FFE39B"/>
<path d="M39.7506 14.2333C39.7845 14.1425 39.793 14.094 39.793 14.094C39.793 14.094 39.5472 14.1848 39.1572 14.3362C38.7758 14.4875 38.2842 14.6934 37.8095 14.9355C37.3178 15.1717 36.8431 15.4441 36.5295 15.7529C36.4532 15.8316 36.3769 15.9103 36.3091 15.989C36.2413 16.0677 36.1904 16.1524 36.1565 16.2432C36.0803 16.4188 36.0548 16.6065 36.1057 16.8123C36.6821 16.9334 37.2161 16.8426 37.6993 16.6186C37.8179 16.5641 37.9366 16.5036 38.0468 16.4309C38.157 16.3643 38.2672 16.2856 38.3689 16.2069C38.5639 16.0434 38.7419 15.8618 38.9029 15.6741C39.2335 15.3048 39.437 14.8992 39.5811 14.6026C39.6489 14.4512 39.7082 14.3241 39.7421 14.2393L39.7506 14.2333Z" fill="#FFE39B"/>
<path d="M34.7325 16.4672C34.9613 16.3522 35.1309 16.2069 35.2411 16.0434C35.3004 15.9647 35.3428 15.88 35.3682 15.7892C35.4021 15.6984 35.4191 15.6075 35.4191 15.5167C35.4191 15.1353 35.2665 14.7358 35.0292 14.3786C34.7749 14.0214 34.4697 13.7126 34.2239 13.5007C34.0967 13.3917 33.995 13.307 33.9103 13.2464C33.834 13.1859 33.7831 13.1556 33.7831 13.1556C33.7831 13.1556 33.7746 13.198 33.7577 13.2646C33.7322 13.3312 33.7068 13.4341 33.6729 13.5552C33.6051 13.7974 33.5797 14.1303 33.5458 14.4875C33.5373 14.6631 33.5458 14.8508 33.5797 15.0385C33.5881 15.0869 33.5966 15.1293 33.6051 15.1777C33.6136 15.2261 33.6221 15.2685 33.6305 15.317C33.656 15.4078 33.6814 15.4986 33.7238 15.5833C33.8848 15.9345 34.1815 16.2553 34.7071 16.4733L34.7325 16.4672Z" fill="#FFE39B"/>
<path d="M38.4537 11.6179C38.352 11.6966 38.2587 11.7753 38.1655 11.854C38.0722 11.9327 37.979 12.0175 37.8858 12.0962C37.7077 12.2596 37.5552 12.4291 37.445 12.6047C37.3856 12.6895 37.3433 12.7803 37.3093 12.865C37.267 12.9558 37.2415 13.0406 37.2246 13.1314C37.1992 13.313 37.2246 13.5007 37.3263 13.6944C37.9281 13.7368 38.4283 13.5734 38.8436 13.2828C38.9453 13.2101 39.047 13.1314 39.1403 13.0467C39.2335 12.9619 39.3013 12.8711 39.3776 12.7742C39.5217 12.5805 39.6489 12.3746 39.7591 12.1627C39.8184 12.0598 39.8523 11.9509 39.8862 11.8479C39.9201 11.745 39.954 11.6421 39.9795 11.5392C40.0303 11.3394 40.0812 11.1517 40.0897 10.9882C40.1151 10.6674 40.1066 10.4494 40.1066 10.4494C40.1066 10.4494 39.8862 10.5826 39.5726 10.7945C39.2674 11.0064 38.8351 11.291 38.4452 11.5997L38.4537 11.6179Z" fill="#FFE39B"/>
<path d="M36.2922 12.9982C36.3261 12.9135 36.343 12.8227 36.3515 12.7318C36.3515 12.641 36.3346 12.5502 36.3091 12.4533C36.2583 12.2717 36.165 12.084 36.0463 11.9085C36.0124 11.8661 35.987 11.8237 35.9531 11.7813C35.9192 11.739 35.8768 11.6966 35.8429 11.6542C35.7666 11.5694 35.6819 11.4907 35.5971 11.4181C35.4276 11.2667 35.2411 11.1275 35.0631 11.0125C34.9783 10.9519 34.8851 10.8974 34.7918 10.849C34.7071 10.8006 34.6138 10.7521 34.5375 10.7098C34.2154 10.5463 33.995 10.4555 33.995 10.4555C33.995 10.4555 33.995 10.6129 34.0289 10.849C34.0459 10.9095 34.0459 10.9701 34.0544 11.0427C34.0544 11.1093 34.0713 11.182 34.0883 11.2607C34.1137 11.412 34.1561 11.5755 34.2069 11.745C34.2493 11.9145 34.3087 12.0901 34.3934 12.2596C34.4358 12.3444 34.4867 12.4291 34.5375 12.5139C34.5884 12.5986 34.6392 12.6774 34.7071 12.7561C34.9613 13.0709 35.3428 13.3433 35.9107 13.4826C36.1057 13.3373 36.2328 13.1738 36.3006 13.0043L36.2922 12.9982Z" fill="#FFE39B"/>
<path d="M37.3602 9.42628C37.3009 9.61396 37.2839 9.79558 37.3263 9.97721C37.3433 10.068 37.3856 10.1528 37.428 10.2436C37.4704 10.3344 37.5297 10.4192 37.606 10.5039C38.1994 10.4434 38.6656 10.2012 38.9453 9.85007C39.0894 9.6745 39.2081 9.47472 39.3013 9.26282C39.3776 9.05093 39.42 8.82692 39.4454 8.60292C39.4539 8.49395 39.4709 8.37892 39.4709 8.26994C39.4709 8.16097 39.4539 8.05805 39.4454 7.95513C39.42 7.74929 39.3946 7.56161 39.3607 7.4042C39.2674 7.08939 39.1827 6.88355 39.1827 6.88355C39.1827 6.88355 39.0216 7.05306 38.7928 7.31339C38.6826 7.44053 38.5469 7.59188 38.4028 7.7614C38.2587 7.93091 38.1146 8.10648 37.9875 8.29416C37.8603 8.47578 37.7162 8.66952 37.606 8.85719C37.4958 9.05093 37.4111 9.23861 37.3602 9.42628Z" fill="#FFE39B"/>
<path d="M36.2244 9.3718C36.1142 9.20228 35.9531 9.04487 35.7751 8.89957C35.6819 8.82692 35.5886 8.75428 35.4869 8.69373C35.3852 8.62714 35.275 8.5666 35.1648 8.51211C34.7155 8.28811 34.2663 8.12465 33.8933 8.02778C33.5288 7.93091 33.283 7.88853 33.283 7.88853C33.283 7.88853 33.3338 8.03989 33.4525 8.25178C33.5034 8.36076 33.5627 8.49395 33.6475 8.63319C33.6899 8.69979 33.7322 8.77244 33.7831 8.84509C33.834 8.91774 33.8679 8.99644 33.9272 9.06909C34.0289 9.22044 34.1476 9.3718 34.2917 9.51709C34.4188 9.66239 34.5714 9.80769 34.7494 9.93483C35.1224 10.183 35.5547 10.3828 36.1565 10.4252C36.2328 10.3405 36.2837 10.2557 36.3261 10.1649C36.3685 10.0741 36.3769 9.98932 36.3769 9.89851C36.3769 9.72294 36.3176 9.54131 36.2159 9.37785L36.2244 9.3718Z" fill="#FFE39B"/>
<path d="M37.0466 3.62642C37.0466 3.62642 36.9449 3.8141 36.8092 4.1047C36.6651 4.3953 36.5126 4.78276 36.36 5.18839C36.2922 5.39423 36.2413 5.59402 36.1989 5.79986C36.1565 6.0057 36.1311 6.20548 36.1565 6.39316C36.1735 6.48397 36.182 6.58084 36.2074 6.67165C36.2328 6.76246 36.2667 6.84722 36.3176 6.93198C36.3685 7.01674 36.4278 7.09544 36.5126 7.16809C36.5888 7.2468 36.6736 7.31945 36.7838 7.38604C37.0635 7.30128 37.2924 7.1802 37.4704 7.02885C37.6484 6.87749 37.7671 6.70192 37.8519 6.50819C37.8942 6.41133 37.9197 6.30841 37.9451 6.20549C37.962 6.10256 37.979 5.99359 37.979 5.88462C37.979 5.66667 37.9451 5.44266 37.8942 5.22472C37.7756 4.79487 37.5806 4.38319 37.3856 4.09865C37.2924 3.95335 37.2161 3.83227 37.1568 3.75356C37.0974 3.67486 37.0551 3.63248 37.0551 3.63248L37.0466 3.62642Z" fill="#FFE39B"/>
<path d="M35.2495 6.65954C35.1902 6.58084 35.1309 6.50214 35.0376 6.43554C34.8681 6.2963 34.6647 6.16916 34.4443 6.06019C34.2239 5.95121 33.9611 5.86645 33.7153 5.7938C33.5881 5.75748 33.461 5.72721 33.3423 5.69694C33.2237 5.66667 33.088 5.64851 32.9694 5.63034C32.732 5.58796 32.5031 5.56375 32.3167 5.54559C32.1217 5.52742 31.9691 5.52137 31.8504 5.51531C31.7318 5.51531 31.6724 5.51531 31.6724 5.51531C31.6724 5.51531 31.6979 5.55164 31.7487 5.60613C31.7996 5.66667 31.8674 5.75142 31.9606 5.84829C32.003 5.89672 32.0539 5.95121 32.1132 6.0057C32.1387 6.03597 32.1726 6.06019 32.2065 6.09046C32.2319 6.12073 32.2658 6.151 32.2912 6.18127C32.4099 6.30235 32.554 6.42949 32.7151 6.55662C32.8592 6.68376 33.0287 6.8109 33.2237 6.92593C33.2745 6.9562 33.3254 6.98041 33.3678 7.01068C33.4186 7.04096 33.461 7.06517 33.5119 7.09544C33.6136 7.14993 33.7153 7.19836 33.8255 7.24074C34.0374 7.33155 34.2832 7.39815 34.5375 7.44053C34.7918 7.48291 35.0631 7.48896 35.3597 7.45264C35.4021 7.35577 35.4276 7.26496 35.4276 7.17415C35.4276 7.08333 35.4106 6.99858 35.3852 6.90776C35.3513 6.82301 35.3089 6.73825 35.258 6.65954H35.2495Z" fill="#FFE39B"/>
<path d="M34.8681 4.52849C35.3513 4.26816 35.5717 3.90492 35.6056 3.50534C35.6225 3.30556 35.5886 3.09366 35.5293 2.88177C35.4615 2.66987 35.3597 2.46403 35.2411 2.26425C35.1224 2.06446 34.9783 1.88283 34.8427 1.70727C34.707 1.53775 34.5545 1.39245 34.4273 1.26531C34.3002 1.13818 34.1815 1.04131 34.0967 0.974715C34.012 0.90812 33.9696 0.871795 33.9696 0.871795C33.9696 0.871795 33.9272 1.07158 33.8763 1.36823C33.8509 1.51959 33.8255 1.70121 33.8085 1.88889C33.8001 1.98576 33.7916 2.08262 33.7831 2.17949C33.7831 2.28241 33.7662 2.38533 33.7662 2.48825C33.7662 2.89993 33.7831 3.32372 33.9357 3.68697C34.012 3.86859 34.1137 4.03205 34.2747 4.17735C34.4188 4.32265 34.6138 4.44373 34.8766 4.5406L34.8681 4.52849Z" fill="#FFE39B"/>
<path d="M32.8931 3.80805C32.4777 3.5901 31.9352 3.45691 31.4012 3.40242C31.1384 3.37215 30.8672 3.36004 30.6213 3.36004C30.3755 3.36004 30.1467 3.3661 29.9517 3.37821C29.5618 3.40848 29.316 3.4448 29.316 3.4448C29.316 3.4448 29.3499 3.47507 29.4177 3.5235C29.4855 3.57194 29.5872 3.63853 29.7059 3.72935C29.8246 3.8141 29.9771 3.90492 30.1382 4.00784C30.2992 4.11076 30.4772 4.21368 30.6722 4.31054C30.8672 4.41346 31.0706 4.51033 31.291 4.58903C31.5029 4.67379 31.7403 4.74644 31.9776 4.79487C32.4608 4.89779 32.9778 4.9099 33.5373 4.73433C33.5542 4.53454 33.4949 4.35897 33.3847 4.20157C33.266 4.05021 33.0965 3.91702 32.8931 3.80199V3.80805Z" fill="#FFE39B"/>
<path d="M12.7306 12.7656C12.7306 12.7026 12.735 12.641 12.7438 12.5809H12.2265C12.2206 12.641 12.2177 12.7026 12.2177 12.7656C12.2177 12.8784 12.228 12.9883 12.2485 13.0938H12.7745C12.7467 12.9883 12.732 12.8784 12.732 12.7656H12.7306Z" fill="#FFE39B"/>
<path d="M14.8963 11.296C14.8963 11.3575 14.8934 11.4191 14.8875 11.4792C14.7952 12.3847 14.0289 13.0939 13.0984 13.0939H12.7745C12.7467 12.9884 12.732 12.8785 12.732 12.7657C12.732 12.6529 12.7364 12.6412 12.7452 12.5811H13.0984C13.7446 12.5811 14.2809 12.1019 14.3703 11.4792C14.3791 11.4191 14.3835 11.3575 14.3835 11.296C14.3835 11.1817 14.3688 11.0718 14.341 10.9663C14.1959 10.4168 13.6933 10.0094 13.0984 10.0094H9.61237C8.90316 10.0094 8.32729 10.5868 8.32729 11.2945C8.32729 12.0023 8.90462 12.5796 9.61237 12.5796H12.2265C12.2206 12.6397 12.2177 12.7012 12.2177 12.7643C12.2177 12.8771 12.228 12.987 12.2485 13.0925H9.61237C8.62182 13.0954 7.81442 12.288 7.81442 11.296C7.81442 10.304 8.62182 9.49805 9.61237 9.49805H13.0969C13.9761 9.49805 14.7102 10.1325 14.8656 10.9678C14.8846 11.0747 14.8963 11.1846 14.8963 11.2975V11.296Z" fill="#FFE39B"/>
<path d="M17.5017 14.0507H14.0171C13.4222 14.0507 12.9196 13.6433 12.7745 13.0938C12.7467 12.9883 12.732 12.8784 12.732 12.7656C12.732 12.6528 12.7364 12.641 12.7452 12.581C12.8346 11.9582 13.3709 11.479 14.0171 11.479H14.3703C14.3791 11.419 14.3835 11.3574 14.3835 11.2959C14.3835 11.1816 14.3688 11.0717 14.341 10.9662H14.0171C13.0881 10.9662 12.3203 11.6754 12.228 12.581C12.2221 12.641 12.2192 12.7026 12.2192 12.7656C12.2192 12.8784 12.2294 12.9883 12.2499 13.0938C12.4053 13.9291 13.1394 14.5636 14.0186 14.5636H17.5031C18.3823 14.5636 19.1164 13.9291 19.2718 13.0938H18.7457C18.6007 13.6433 18.098 14.0507 17.5031 14.0507H17.5017ZM14.8875 11.479H17.5017C18.1479 11.479 18.6842 11.9582 18.7736 12.581H19.2908C19.1985 11.6754 18.4307 10.9662 17.5017 10.9662H14.867C14.8861 11.0732 14.8978 11.1831 14.8978 11.2959C14.8978 11.4087 14.8949 11.419 14.889 11.479H14.8875Z" fill="#FFE39B"/>
<path d="M26.3083 14.0507H22.8237C22.2288 14.0507 21.7262 13.6433 21.5811 13.0938C21.5533 12.9883 21.5387 12.8784 21.5387 12.7656C21.5387 12.6528 21.543 12.641 21.5518 12.581C21.6412 11.9582 22.1775 11.479 22.8237 11.479H23.1769C23.1857 11.419 23.1901 11.3574 23.1901 11.2959C23.1901 11.1816 23.1754 11.0717 23.1476 10.9662H22.8237C21.8947 10.9662 21.1269 11.6754 21.0346 12.581C21.0287 12.641 21.0258 12.7026 21.0258 12.7656C21.0258 12.8784 21.036 12.9883 21.0566 13.0938C21.2119 13.9291 21.946 14.5636 22.8252 14.5636H26.3097C27.1889 14.5636 27.9231 13.9291 28.0784 13.0938H27.5523C27.4073 13.6433 26.9047 14.0507 26.3097 14.0507H26.3083ZM23.6941 11.479H26.3083C26.9545 11.479 27.4908 11.9582 27.5802 12.581H28.0974C28.0051 11.6754 27.2373 10.9662 26.3083 10.9662H23.6736C23.6927 11.0732 23.7044 11.1831 23.7044 11.2959C23.7044 11.4087 23.7015 11.419 23.6956 11.479H23.6941Z" fill="#FFE39B"/>
<path d="M23.7029 11.296C23.7029 11.3575 23.7 11.4191 23.6941 11.4792C23.6018 12.3847 22.834 13.0939 21.905 13.0939H21.5811C21.5533 12.9884 21.5386 12.8785 21.5386 12.7657C21.5386 12.6529 21.543 12.6412 21.5518 12.5811H21.905C22.5512 12.5811 23.0875 12.1019 23.1769 11.4792C23.1857 11.4191 23.1901 11.3575 23.1901 11.296C23.1901 11.1817 23.1754 11.0718 23.1476 10.9663C23.0025 10.4168 22.4999 10.0094 21.905 10.0094H18.4204C17.8255 10.0094 17.3229 10.4153 17.1778 10.9663H16.6518C16.8071 10.1325 17.5412 9.49805 18.4204 9.49805H21.905C22.7842 9.49805 23.5183 10.1325 23.6736 10.9678C23.6927 11.0747 23.7044 11.1846 23.7044 11.2975L23.7029 11.296Z" fill="#FFE39B"/>
<path d="M21.0258 12.7656C21.0258 12.8784 21.036 12.9883 21.0566 13.0938H18.4219C17.4914 13.0938 16.7251 12.3846 16.6328 11.479H17.15C17.2394 12.1018 17.7757 12.5809 18.4219 12.5809H21.036C21.0302 12.641 21.0273 12.7025 21.0273 12.7656H21.0258Z" fill="#FFE39B"/>
<path d="M32.5095 11.296C32.5095 12.288 31.7021 13.0939 30.7116 13.0939H27.227C26.298 13.0939 25.5302 12.3847 25.4379 11.4792H25.9551C26.0445 12.1019 26.5808 12.5811 27.227 12.5811H30.7116C31.4208 12.5811 31.9967 12.0052 31.9967 11.296C31.9967 10.5868 31.4193 10.0109 30.7116 10.0109H27.227C26.6321 10.0109 26.1295 10.4168 25.9844 10.9678H25.4584C25.6137 10.1325 26.3478 9.49805 27.227 9.49805H30.7116C31.7036 9.49805 32.5095 10.3054 32.5095 11.296Z" fill="#FFE39B"/>
</svg>
