<svg width="320" height="139" viewBox="0 0 320 139" fill="none" xmlns="http://www.w3.org/2000/svg">
<path d="M114.627 139.065C110.419 135.505 106.604 131.294 101.893 128.574C97.6211 126.101 92.3764 125.244 87.5536 123.685C87.0497 123.524 86.4403 123.558 86.0183 123.294C85.1042 122.724 84.2779 122.017 83.4106 121.361C84.19 120.999 84.946 120.585 85.7488 120.291C93.0444 117.588 100.006 114.471 103.874 107.195C104.02 106.924 104.823 106.855 105.292 106.913C107.015 107.126 108.743 107.741 110.431 107.638C114.703 107.367 116.308 104.008 114.164 100.356C114.005 100.091 114.381 99.1653 114.703 99.0503C115.787 98.6534 117.228 98.8087 118.031 98.153C119.485 96.9682 121.829 95.0413 121.553 93.9945C121.02 91.9699 118.904 90.3594 117.48 88.5476C116.859 87.7539 115.875 86.9314 115.81 86.0629C115.248 78.8445 111.345 73.2366 106.856 67.9392C105.731 66.6106 106.013 66.2195 107.39 65.4832C116.361 60.7151 118.881 47.9232 112.453 40.1124C112.289 39.9168 111.99 39.6695 112.025 39.4912C113.044 33.9063 108.105 31.3065 105.397 27.8842C103.545 25.5433 99.842 24.1341 96.701 23.3922C93.5718 22.6502 91.0345 21.6436 89.0948 19.1416C82.5727 10.7441 73.8414 9.73757 63.9966 11.6126C61.7874 12.0325 59.2266 10.9397 56.8709 10.3645C48.0751 8.19611 41.0959 11.8312 34.6617 17.048C28.6962 21.8852 25.3912 28.4192 22.6312 35.35C21.8459 37.3286 20.2989 39.1864 18.6699 40.6416C7.09058 51.0177 2.98275 64.2754 3.30505 79.1148C3.51015 88.6627 5.70176 97.8597 11.046 105.981C14.9664 111.934 20.3165 116.541 26.9617 119.555C27.3484 119.728 27.7176 119.929 28.0985 120.113C27.7352 120.401 27.407 120.769 26.9968 120.964C23.1469 122.816 19.3965 124.945 15.4 126.411C9.46386 128.585 4.16059 131.519 2.28882e-05 136.264C0.210983 137.201 0.427803 138.145 0.638756 139.082C2.76592 137.075 4.88137 135.056 7.02612 133.066C7.34841 132.767 7.81135 132.612 8.20983 132.387C8.12193 132.784 8.01644 133.175 7.94612 133.572C7.62968 135.407 7.32497 137.242 7.02026 139.077H9.2529C9.70412 131.824 10.7413 130.391 17.7381 128.246C33.0209 123.564 48.7138 122.874 64.5885 123.541C76.1736 124.024 87.6005 125.06 98.5059 129.23C98.7696 129.333 99.0333 130.196 98.8751 130.495C97.3574 133.382 95.7517 136.218 94.1754 139.071H96.4081C96.8241 138.007 97.1581 136.902 97.6679 135.884C100.498 130.248 101.213 130.046 106.464 133.273L106.78 133.538L106.856 133.595C106.956 133.67 107.056 133.739 107.155 133.814L107.196 133.848C107.296 133.934 107.395 134.026 107.495 134.113L107.524 134.136C107.63 134.228 107.729 134.314 107.835 134.406L107.858 134.429L108.175 134.722C108.181 134.814 108.233 134.86 108.333 134.86C108.497 135.004 108.655 135.148 108.819 135.286C108.849 135.395 108.919 135.453 109.036 135.453C109.124 135.539 109.212 135.625 109.306 135.712C109.306 135.781 109.347 135.815 109.417 135.81C109.499 135.873 109.581 135.942 109.657 136.005L109.739 136.086C109.816 136.166 109.892 136.252 109.962 136.333L110.044 136.402C110.126 136.482 110.208 136.563 110.296 136.644L110.349 136.707C111.234 137.489 112.119 138.271 113.009 139.059H114.603L114.627 139.065ZM103.481 47.791C103.399 47.8657 103.311 47.9462 103.229 48.021C103.106 48.1418 102.977 48.2626 102.854 48.3834C102.584 48.5847 102.321 48.786 102.051 48.9873L101.934 49.0908C101.799 49.2346 101.659 49.3842 101.524 49.528C101.237 49.6948 100.955 49.8558 100.668 50.0226C100.434 50.1837 100.199 50.3447 99.965 50.5058C99.6662 50.6553 99.3615 50.7991 99.0626 50.9487C95.5759 52.1795 92.0834 53.4104 88.5967 54.647C88.667 54.9288 88.7315 55.2049 88.8018 55.4868C89.8508 55.5385 90.9055 55.7168 91.9369 55.6248C94.5973 55.3775 97.5566 54.6413 96.1912 59.1046C96.115 59.3519 96.3553 59.6913 96.4491 59.9846C96.5311 60.0594 96.6131 60.1399 96.6952 60.2147L96.7303 60.2549L96.9589 60.4908C97.2167 60.7438 97.4687 61.0027 97.7265 61.2557C97.7969 61.3075 97.8613 61.3708 97.9199 61.434C98.1836 61.7331 98.4532 62.0265 98.7169 62.3256C102.532 67.3468 106.347 72.3738 110.161 77.3951C110.255 77.5158 110.349 77.6366 110.449 77.7574C111.415 81.4615 112.382 85.1656 113.343 88.8697C112.91 88.956 112.417 89.2091 112.048 89.094C110.185 88.5189 108.392 87.6619 106.499 87.242C102.555 86.3677 97.7851 89.5197 97.3925 93.0915C98.4356 95.9904 99.8185 98.8317 100.399 101.817C100.727 103.508 100.147 105.694 99.215 107.212C98.0957 109.035 96.326 110.571 94.568 111.894C88.4385 116.512 82.309 121.424 73.8003 117.157C73.2436 116.875 72.6107 116.714 72.0013 116.547C58.6816 112.895 45.4733 113.832 32.3353 117.502C31.3918 117.657 30.3546 118.158 29.5284 117.927C18.4237 114.81 12.0247 106.959 8.59658 96.7266C2.22681 77.6884 7.12574 60.4045 18.1425 44.3399C18.7988 43.3851 19.8946 40.0894 21.9924 43.4829C22.0452 43.5634 22.1624 43.6037 22.2503 43.6612C22.4905 43.6152 22.7249 43.5634 22.9652 43.5174C23.9497 33.5957 28.1513 25.2212 35.8454 18.7103C42.0276 13.4819 48.9483 10.1689 57.4569 12.5847C58.1074 12.7687 58.6816 13.2289 59.2911 13.5567C58.6113 13.9076 57.9374 14.2527 57.2577 14.6035C57.3163 14.7013 57.2928 14.7761 57.1932 14.8278C53.853 18.2674 50.4718 21.6724 47.2196 25.1924C46.8797 25.5606 47.3133 26.6131 47.3836 27.3493C50.296 24.3987 53.0033 21.218 56.1618 18.5435C67.5243 8.90932 80.7795 10.6348 89.3468 22.6847C89.3116 23.3749 89.2765 24.0709 89.2413 24.7611L89.1417 24.7956C87.3661 27.079 85.5906 29.3682 83.815 31.6516C83.815 31.9967 83.8209 32.3418 83.8267 32.6869C84.2311 32.4051 84.6588 32.1463 85.0339 31.8299C86.5868 30.5358 88.1221 29.2302 89.6691 27.9245C91.1517 27.1078 92.6284 26.291 94.1109 25.4743C94.5504 26.4693 95.6521 27.8612 95.3181 28.3962C93.1147 31.9392 90.6008 35.2982 88.1865 38.7147C88.7842 38.6457 89.6808 38.7953 89.9269 38.4732C92.2358 35.4075 94.4274 32.2613 96.66 29.1381C97.2519 26.8144 98.8106 26.0379 100.698 27.4759C103.991 29.9836 107.061 32.7732 110.109 35.5685C110.384 35.8216 109.81 36.9662 109.628 37.6967C108.099 40.4057 106.575 43.1148 105.046 45.8239C104.882 46.146 104.712 46.4681 104.548 46.7902C104.413 46.9224 104.278 47.049 104.143 47.1813C104.061 47.256 103.985 47.3366 103.903 47.4113L103.809 47.4919C103.733 47.5666 103.657 47.6357 103.575 47.7104L103.481 47.8025V47.791ZM98.377 55.2452L98.4121 55.1762C98.8399 54.8943 99.2736 54.6182 99.7013 54.3364C100.006 54.1696 100.311 53.9971 100.61 53.8303C100.832 53.6807 101.055 53.5312 101.278 53.3816C101.371 53.3184 101.459 53.2608 101.553 53.1976C103.346 51.6849 105.139 50.1722 106.933 48.6595C106.991 48.5789 107.056 48.4927 107.114 48.4121C107.478 47.9635 107.841 47.5149 108.198 47.0662C108.345 46.8649 108.491 46.6636 108.632 46.4623C108.808 46.2495 108.984 46.0424 109.159 45.8296C109.206 45.7376 109.253 45.6456 109.3 45.5535C109.458 45.3292 109.611 45.1106 109.769 44.8863C109.827 44.7943 109.886 44.6965 109.939 44.6045C110.413 43.8798 110.888 43.1551 111.363 42.4361C111.761 43.0803 112.165 43.7302 112.564 44.3744L112.892 44.9438C112.992 45.1682 113.097 45.3925 113.197 45.6168C113.156 45.7146 113.185 45.7894 113.279 45.8411C113.455 48.3201 113.625 50.8049 113.8 53.2838C113.771 53.5139 113.742 53.7382 113.713 53.9683C113.566 54.4572 113.419 54.9403 113.279 55.4292C113.22 55.596 113.156 55.7571 113.097 55.9239C112.939 56.2805 112.781 56.6313 112.623 56.988C112.523 57.034 112.494 57.1087 112.535 57.2123C112.283 57.6667 112.031 58.1268 111.779 58.5812C111.656 58.6157 111.603 58.6962 111.62 58.817C111.374 59.1621 111.134 59.5072 110.888 59.8466C109.775 60.9049 108.667 61.9632 107.554 63.0273L103.915 64.1891L103.833 64.1086C103.715 63.959 103.604 63.8037 103.487 63.6542C103.147 63.3206 102.813 62.987 102.473 62.6476C102.385 62.5729 102.291 62.4924 102.204 62.4176C102.104 62.3716 102.004 62.3256 101.905 62.2795C101.682 62.015 101.459 61.7446 101.231 61.48C100.692 60.9279 100.158 60.3815 99.6193 59.8293C99.3087 59.536 98.9981 59.2484 98.6876 58.955L98.6524 58.886C98.5762 57.9485 98.4942 57.0167 98.418 56.0792C98.3946 55.8664 98.3711 55.6536 98.3477 55.4407C98.3067 55.4235 98.2656 55.4062 98.2246 55.389C98.2715 55.343 98.3184 55.2912 98.3594 55.2452H98.377ZM56.2673 114.931C59.9415 115.356 63.7153 115.414 67.2723 116.3C71.5618 117.369 75.6931 119.095 79.8478 120.648C80.3928 120.849 80.6799 121.724 81.0842 122.287C80.5334 122.356 79.9826 122.466 79.4259 122.483C78.7344 122.5 78.0371 122.494 77.3573 122.414C61.8343 120.498 46.3523 120.867 30.8937 123.161C30.1554 123.271 29.3467 122.897 28.5732 122.747C29.0889 122.218 29.5108 121.493 30.1378 121.183C38.33 117.105 47.0672 115.236 56.2732 114.931H56.2673ZM113.425 97.2442C111.386 96.6633 109.417 96.1284 107.477 95.536C105.919 95.0586 104.354 94.5754 102.842 93.9715C101.94 93.6092 101.137 93.011 100.293 92.5221C101.231 91.6191 102.174 89.9511 103.1 89.9626C105.661 89.9913 108.21 90.7563 110.783 91.1532C112.212 91.3717 113.666 91.4293 115.107 91.5558C116.349 91.6651 117.598 91.7628 118.84 91.8721C118.705 93.0972 119.022 94.886 118.33 95.4267C117.07 96.4102 115.207 96.6461 113.437 97.25L113.425 97.2442ZM101.975 98.6937C101.348 96.2952 102.784 96.6115 104.506 97.3478C106.446 98.176 108.579 98.7397 110.273 99.913C111.509 100.764 112.171 102.415 113.085 103.709C112.113 104.256 111.204 105.078 110.161 105.308C106.54 106.096 102.145 102.622 101.975 98.6994V98.6937Z" fill="#090A0C"/>
<path d="M94.193 139.065C95.7752 136.212 97.3808 133.371 98.8926 130.489C99.0509 130.19 98.7872 129.322 98.5235 129.224C87.6181 125.054 76.1912 124.019 64.606 123.535C48.7314 122.868 33.0385 123.558 17.7557 128.24C10.7589 130.386 9.71581 131.818 9.27045 139.071H94.1988L94.193 139.065Z" fill="#F1FBE7"/>
<path d="M108.356 134.86C108.263 134.86 108.21 134.82 108.198 134.722C108.093 134.625 107.987 134.527 107.882 134.429L107.858 134.406C107.753 134.314 107.653 134.222 107.548 134.136L107.519 134.113C107.419 134.026 107.319 133.934 107.22 133.848L107.179 133.814C107.079 133.739 106.979 133.67 106.88 133.595L106.804 133.538C106.698 133.451 106.593 133.359 106.487 133.273C101.231 130.046 100.522 130.248 97.6914 135.884C97.1815 136.902 96.8475 138.007 96.4315 139.071H112.394C111.72 138.289 111.046 137.506 110.372 136.718L110.32 136.655C110.238 136.575 110.155 136.494 110.068 136.413L109.986 136.344C109.909 136.264 109.833 136.178 109.763 136.097L109.681 136.017C109.599 135.953 109.517 135.884 109.435 135.821C109.364 135.821 109.329 135.792 109.323 135.723C109.235 135.637 109.142 135.551 109.054 135.459C108.937 135.459 108.866 135.401 108.837 135.292C108.673 135.148 108.515 135.004 108.351 134.866L108.356 134.86Z" fill="#F1FBE7"/>
<path d="M7.03196 139.065C7.34254 137.23 7.64725 135.395 7.95783 133.561C8.02815 133.164 8.13362 132.767 8.22152 132.376C7.82304 132.6 7.36012 132.755 7.03782 133.054C4.89307 135.045 2.77763 137.063 0.650459 139.071H7.03782L7.03196 139.065Z" fill="#F1FBE7"/>
<path d="M110.372 136.718C111.046 137.501 111.72 138.283 112.394 139.071H113.033C112.148 138.289 111.263 137.506 110.372 136.718Z" fill="#14611C"/>
<path d="M97.3925 93.08C97.7851 89.5082 102.555 86.3562 106.499 87.2305C108.392 87.6504 110.185 88.5074 112.048 89.0826C112.417 89.1976 112.91 88.9445 113.343 88.8582C112.376 85.1541 111.41 81.45 110.448 77.7459C110.929 79.6842 111.433 81.6111 111.884 83.5551C111.978 83.9693 111.896 84.4179 111.896 84.8493C111.65 84.5042 111.357 84.1878 111.163 83.814C109.605 80.7771 108.069 77.7344 106.528 74.6917C105.848 75.7443 105.163 76.7969 104.477 77.8552C103.997 77.4008 103.545 76.9119 103.024 76.5035C102.866 76.3828 102.538 76.469 102.286 76.4633C102.62 77.4008 102.901 78.3613 103.311 79.2644C103.557 79.8108 104.014 80.2652 104.372 80.7598C103.926 80.9899 103.51 81.3062 103.036 81.4385C102.016 81.7319 100.926 81.8239 99.9592 82.215C99.5607 82.376 99.3966 83.0893 99.1212 83.5494C98.9688 83.1525 98.629 82.7269 98.6993 82.3761C98.8341 81.7319 99.1095 81.0647 99.5079 80.5413C99.7951 80.1674 100.387 80.0121 100.838 79.759C100.44 79.2356 100.094 78.6489 99.5958 78.2406C99.4904 78.1543 98.8634 78.7812 98.4239 78.948C97.58 79.2644 96.6952 79.7188 95.8337 79.7015C93.5015 79.6612 91.1634 79.1953 88.8487 79.2989C86.8094 79.3909 84.7467 77.3318 85.444 75.3877C85.5319 75.1404 86.4168 74.8701 86.5926 75.0081C87.2841 75.5775 87.8466 76.308 88.4502 76.9809C88.7315 77.2915 89.001 77.6136 89.2706 77.93C89.423 77.5849 89.5929 77.2398 89.716 76.8832C89.9386 76.2447 90.1379 75.6005 90.343 74.9563C90.97 75.2669 91.5794 75.5948 92.2181 75.8824C92.7221 76.1067 93.2495 76.2792 93.771 76.469C93.7945 75.6925 94.0054 74.8528 93.7828 74.1511C93.607 73.5817 92.8803 73.1905 92.4467 72.6844C91.9603 72.115 91.5325 71.4995 91.0755 70.9014C91.8138 70.7633 92.558 70.654 93.2847 70.4872C93.8531 70.355 94.4039 70.1479 94.9606 69.9696C94.4508 69.8315 93.771 69.8488 93.4663 69.5267C92.6987 68.7272 92.0834 67.7839 91.4564 66.8637C91.3743 66.7371 91.5736 66.4265 91.6439 66.2022C92.3998 66.4438 93.1499 66.6854 93.9058 66.9212C94.3395 67.0535 94.7848 67.2663 95.2067 67.2318C95.3942 67.2203 95.7341 66.6451 95.6755 66.4093C95.4529 65.5753 95.0485 64.793 94.779 63.9705C94.5739 63.3379 94.4449 62.6822 94.357 62.0265C94.3512 61.9689 95.0368 61.6756 95.1364 61.7676C95.6111 62.2048 95.9334 62.8144 96.4256 63.2228C97.5976 64.1891 98.834 65.0749 100.047 65.9951C99.379 64.6262 98.711 63.2573 98.0371 61.8827C97.9961 61.7216 97.9492 61.5663 97.9082 61.4053C97.8496 61.342 97.7851 61.2787 97.7148 61.227C97.457 60.9739 97.205 60.7151 96.9471 60.462C96.871 60.3815 96.7948 60.3067 96.7186 60.2319L96.6483 60.2607L96.6835 60.1917C96.6014 60.1169 96.5194 60.0364 96.4373 59.9616C95.5935 59.5015 94.7555 59.0356 93.9117 58.5754C93.6949 59.2886 93.4722 60.0019 93.2554 60.7151C93.1499 61.0544 93.103 61.4283 92.9272 61.7274C92.6577 62.1703 92.1947 62.5154 91.9896 62.9755C91.6966 63.6254 91.5677 64.3386 91.3685 65.0289C91.1399 64.3156 90.9114 63.6024 90.6887 62.8892C90.6594 62.7914 90.7239 62.6189 90.6711 62.5844C89.3409 61.7734 88.6436 60.7668 89.5636 59.2426C88.8077 58.8458 87.999 58.5237 87.3134 58.0405C85.9421 57.0742 84.735 56.1137 83.9263 58.6387C83.7915 59.0701 82.6195 59.1794 81.9222 59.4382C81.8343 58.9665 81.5765 58.4431 81.6878 58.029C82.5551 54.9116 80.7385 52.7489 77.4276 52.979C77.0702 53.002 76.4431 52.841 76.3611 52.6166C75.529 50.3562 74.8727 48.0268 73.9585 45.8009C73.6245 44.9784 72.7631 43.7763 72.1185 43.7647C67.3426 43.6612 62.555 43.8453 57.7733 43.851C57.2518 43.851 56.3083 43.3161 56.279 42.971C56.115 40.8946 56.238 38.7953 56.0857 36.7189C56.0388 36.0747 55.4352 35.4765 55.0836 34.8553C54.7144 35.1372 54.3159 35.3845 53.9819 35.7008C53.226 36.414 52.4994 37.156 51.761 37.8865C51.0461 36.6901 49.4405 34.8381 49.7686 34.3952C51.6614 31.8932 50.7414 29.6443 49.7979 27.2861C48.9775 27.7002 48.1571 28.1143 47.3367 28.5284C47.0086 28.701 46.6277 28.8103 46.3581 29.0461C43.3227 31.7321 41.7815 31.5136 39.9473 28.1661C39.6543 27.6312 39.1269 27.2286 38.7519 26.7339C38.16 25.9517 37.5975 25.1522 37.0408 24.3469C36.8064 24.0133 36.6247 23.6452 36.4138 23.2944C36.197 23.6912 35.8512 24.0709 35.7868 24.4907C35.4586 26.6074 35.6227 29.0288 32.3177 28.9311C32.095 28.9253 31.7317 29.4257 31.6379 29.7536C31.1457 31.4216 30.8117 33.1356 30.2374 34.7691C29.9678 35.5455 29.3467 36.2472 28.7372 36.8339C28.5087 37.0582 27.7938 36.9835 27.4246 36.8052C27.2371 36.7131 27.243 36.0747 27.2957 35.7066C27.4656 34.5275 27.7 33.3541 27.911 32.1808C26.7449 35.7756 25.5787 39.3704 24.4067 42.9653C25.0923 42.6834 25.7838 42.4073 26.4694 42.1255C25.5143 43.109 27.4246 45.9446 24.2192 45.4788C24.0317 46.8189 23.8383 48.1591 23.6508 49.505C22.5081 50.8336 21.2599 52.0875 20.252 53.5082C19.0273 55.2337 17.8436 57.0225 16.9529 58.9263C15.8864 61.1982 14.9663 63.5679 14.3276 65.9836C13.9408 67.4446 14.2163 69.0666 14.2046 70.6195C14.2046 71.2292 14.3569 72.3335 14.2046 72.3738C11.3625 73.1445 12.4466 74.594 13.308 76.2045C13.6361 76.8199 13.6127 77.8264 13.349 78.4994C13.015 79.3391 12.3469 80.1156 11.6379 80.7023C11.4328 80.8691 10.2725 80.4205 10.0674 80.0006C9.12983 78.114 8.23911 76.1469 10.8995 74.7263C11.1984 74.5652 11.38 73.9325 11.38 73.5184C11.3507 70.7001 11.2511 67.8875 11.1925 65.0691C11.1867 64.77 11.2628 64.4537 11.3625 64.1661C12.4524 60.9221 13.5541 57.6782 14.6499 54.4399C9.24116 64.4882 7.11985 75.1806 8.19222 86.4885C10.3604 84.4812 12.5227 82.4738 14.6909 80.4607C15.3355 79.667 15.8278 78.5396 16.6716 78.1773C17.4744 77.8322 18.6523 78.2003 19.625 78.4246C19.9063 78.4879 20.2872 79.4197 20.2169 79.4772C19.7129 79.8913 19.1035 80.1789 18.5292 80.5125C24.1782 83.2733 29.8682 85.9479 35.4645 88.8065C44.4771 93.4193 53.7065 97.6814 64.0904 97.25C69.8448 97.0142 75.529 95.2311 81.2542 94.1901C86.5867 93.218 91.8314 90.9058 97.3925 93.0627V93.08ZM88.122 87.5123C88.4092 87.2995 88.9776 86.8796 89.5402 86.4655C88.9483 86.2642 88.3447 86.0974 87.7704 85.8443C86.9266 85.4705 86.1062 85.0448 85.2741 84.6365C86.0945 84.3144 86.8915 83.8945 87.7411 83.6932C88.3975 83.5379 89.1358 83.5552 89.8039 83.6817C91.5443 84.0095 94.3981 82.33 94.3805 86.0226C94.3805 86.1664 94.8669 86.4195 95.1423 86.4483C97.9082 86.7301 100.422 86.385 102.514 84.2396C103.27 83.4631 104.589 83.2158 105.649 82.7269C105.585 83.6299 105.526 84.5329 105.45 85.4302C105.438 85.551 105.356 85.7466 105.274 85.7696C102.291 86.5345 99.2853 87.2305 96.3201 88.076C95.4704 88.3176 94.7555 89.0135 93.9586 89.4564C93.4312 89.7497 92.8569 89.9626 92.3061 90.2156C92.1654 89.8188 92.0482 89.4161 91.8841 89.0308C91.7435 88.7029 91.5501 88.3981 91.3802 88.0875C91.1927 88.4671 90.9758 88.8295 90.8293 89.2263C90.6828 89.6117 90.6008 90.0258 90.4953 90.4285C90.2668 90.3594 90.0148 90.3307 89.8214 90.2099C88.6319 89.4507 87.454 88.6799 86.2703 87.9034C85.9949 87.7251 85.7429 87.5123 85.4792 87.3168C85.7722 87.3168 86.0711 87.2938 86.3582 87.3168C86.7801 87.3455 87.1962 87.4088 88.1279 87.5123H88.122ZM60.4806 82.123C59.461 81.3522 58.7988 80.8518 58.1308 80.3514C58.9102 79.9948 59.6837 79.3851 60.4689 79.3564C61.1604 79.3334 61.8753 79.9718 62.5785 80.3169C61.9749 80.8346 61.3713 81.3522 60.4748 82.1172L60.4806 82.123ZM110.044 84.0786L111.146 85.4877C110.366 85.6085 109.581 85.8673 108.819 85.7983C108.392 85.758 107.624 84.9586 107.665 84.901C108.128 84.1648 108.714 83.5091 109.265 82.8304C109.523 83.2503 109.78 83.6644 110.044 84.0843V84.0786Z" fill="#469A3C"/>
<path d="M97.3925 93.08C91.8314 90.9231 86.5867 93.241 81.2542 94.2073C75.529 95.2484 69.8448 97.0257 64.0904 97.2673C53.7065 97.6929 44.4771 93.4366 35.4645 88.8237C29.8741 85.9594 24.1782 83.2848 18.5292 80.5297C17.2517 80.5125 15.9684 80.4952 14.6909 80.478C12.5227 82.4853 10.3604 84.4927 8.19222 86.5058C7.96368 101.679 17.7322 113.591 30.3722 116.651C31.0578 116.817 31.6789 117.214 32.3294 117.502C45.4674 113.832 58.6758 112.889 71.9954 116.547C72.6049 116.714 73.2319 116.875 73.7945 117.157C82.3031 121.419 88.4326 116.507 94.5621 111.894C96.3201 110.571 98.0898 109.035 99.2091 107.212C100.141 105.694 100.721 103.508 100.393 101.817C99.8185 98.826 98.4356 95.9904 97.3866 93.0915L97.3925 93.08Z" fill="#14611C"/>
<path d="M56.2673 114.931C47.0555 115.236 38.3241 117.099 30.1319 121.183C29.5049 121.499 29.083 122.218 28.5673 122.747C29.3408 122.897 30.1554 123.271 30.8878 123.161C46.3464 120.867 61.8284 120.498 77.3514 122.414C78.0312 122.5 78.7344 122.506 79.42 122.483C79.9767 122.466 80.5275 122.356 81.0784 122.287C80.674 121.724 80.3869 120.849 79.8419 120.648C75.6872 119.095 71.5618 117.364 67.2665 116.3C63.7095 115.414 59.9415 115.356 56.2615 114.931H56.2673Z" fill="#14611C"/>
<path d="M27.9168 32.1923C27.7059 33.3656 27.4715 34.539 27.3015 35.7181C27.2488 36.092 27.2429 36.7304 27.4305 36.8167C27.7996 36.995 28.5146 37.064 28.7431 36.8454C29.3525 36.2588 29.9678 35.5513 30.2432 34.7806C30.8175 33.1471 31.1515 31.4331 31.6438 29.7651C31.7375 29.443 32.1009 28.9368 32.3235 28.9426C35.6285 29.0403 35.4645 26.6189 35.7926 24.5022C35.8571 24.0824 36.2028 23.7027 36.4196 23.3059C36.6247 23.6567 36.8123 24.0248 37.0467 24.3584C37.6033 25.1637 38.1659 25.9632 38.7578 26.7454C39.1328 27.2401 39.6602 27.6427 39.9532 28.1776C41.7874 31.5308 43.3285 31.7494 46.364 29.0576C46.6335 28.8218 47.0144 28.7067 47.3426 28.5399C47.3543 28.1431 47.3719 27.7405 47.3836 27.3436C47.3074 26.6074 46.8797 25.5548 47.2195 25.1867C50.466 21.6666 53.8471 18.2616 57.1932 14.8221C54.6617 14.8163 52.1302 14.7416 49.6045 14.8221C48.163 14.8681 46.7332 15.1729 45.2975 15.357C45.11 15.4203 44.9166 15.4835 44.7291 15.5468C42.5492 16.6914 40.3634 17.8417 38.1835 18.9863L38.1366 19.0093C37.7381 19.3372 37.3397 19.665 36.947 19.9929L36.9705 20.0734L36.9353 19.9986C36.1852 20.7119 35.4293 21.4308 34.6792 22.144L34.6616 22.1613C34.6851 22.5179 34.855 22.9608 34.7027 23.2081C33.1146 25.7043 31.509 28.1948 29.8155 30.6221C29.3701 31.2605 28.5966 31.6746 27.9696 32.1865H27.9286L27.9168 32.1923Z" fill="#309E45"/>
<path d="M108.638 46.4623C108.491 46.6636 108.345 46.8649 108.204 47.0662C107.841 47.5149 107.477 47.9635 107.12 48.4121C107.061 48.4927 106.997 48.5789 106.938 48.6595C105.145 50.1722 103.352 51.6849 101.559 53.1976C101.465 53.2608 101.377 53.3184 101.284 53.3816C101.061 53.5312 100.838 53.6807 100.615 53.8303C100.311 53.9971 100.006 54.1696 99.7072 54.3364C99.2794 54.6182 98.8458 54.8943 98.418 55.1762L98.3828 55.2452L98.4414 55.3487L98.3653 55.4407C98.3887 55.6536 98.4121 55.8664 98.4356 56.0734C98.5118 57.011 98.5938 57.9427 98.67 58.8803L98.7051 58.9493C99.0157 59.2426 99.3263 59.5302 99.6369 59.8236C100.176 60.3757 100.709 60.9221 101.248 61.4743C101.471 61.7389 101.7 62.0092 101.922 62.2738C102.022 62.3198 102.121 62.3658 102.221 62.4118C102.309 62.4866 102.403 62.5671 102.491 62.6476C102.831 62.9812 103.165 63.3148 103.499 63.6484C103.616 63.798 103.727 63.9533 103.844 64.1028L103.926 64.1834C105.139 63.798 106.352 63.4126 107.565 63.0215C108.679 61.9632 109.786 60.9049 110.9 59.8466C111.146 59.5015 111.392 59.1564 111.632 58.8112C111.615 58.6847 111.667 58.6099 111.79 58.5754C112.042 58.121 112.294 57.6609 112.546 57.2065C112.505 57.103 112.535 57.0282 112.634 56.9822C112.792 56.6256 112.951 56.2747 113.109 55.9181C113.168 55.7513 113.232 55.5903 113.291 55.4235C113.437 54.9346 113.584 54.4514 113.724 53.9626C113.753 53.7325 113.783 53.5082 113.812 53.2781C113.636 50.7991 113.466 48.3144 113.291 45.8354C113.191 45.7894 113.162 45.7146 113.209 45.6111C113.109 45.3867 113.003 45.1624 112.904 44.9381C112.792 44.7483 112.687 44.5585 112.576 44.3687C111.509 42.3326 110.765 43.8395 109.95 44.5987C109.892 44.6908 109.833 44.7886 109.78 44.8806C109.622 45.0991 109.47 45.3235 109.312 45.5478C109.265 45.6398 109.218 45.7318 109.171 45.8239C108.995 46.0367 108.819 46.2437 108.644 46.4566L108.638 46.4623Z" fill="white"/>
<path d="M32.3353 117.496C31.6848 117.208 31.0578 116.806 30.378 116.645C17.7322 113.585 7.96956 101.667 8.1981 86.5C7.12572 75.1921 9.24702 64.5055 14.6558 54.4514C16.9236 51.4318 19.2031 48.4236 21.4357 45.381C21.8108 44.8748 21.9866 44.2306 22.2561 43.6497C22.1682 43.5922 22.0452 43.5519 21.9983 43.4714C19.9063 40.0779 18.8046 43.3736 18.1483 44.3284C7.13158 60.393 2.23266 77.6769 8.60243 96.7151C12.0247 106.953 18.4296 114.799 29.5342 117.916C30.3604 118.146 31.4035 117.651 32.3411 117.49L32.3353 117.496Z" fill="#F1FBE7"/>
<path d="M22.2503 43.6497C21.9807 44.2306 21.8049 44.8748 21.4299 45.381C19.1972 48.4236 16.9118 51.4318 14.6499 54.4514C13.5541 57.6954 12.4524 60.9336 11.3625 64.1776C11.2628 64.4652 11.1867 64.7815 11.1925 65.0806C11.2511 67.899 11.3507 70.7116 11.38 73.5299C11.38 73.944 11.2042 74.5767 10.8995 74.7378C8.23911 76.1584 9.12397 78.1313 10.0674 80.0121C10.2725 80.4262 11.4328 80.8806 11.6379 80.7138C12.3528 80.1329 13.015 79.3506 13.349 78.5109C13.6185 77.8379 13.642 76.8371 13.308 76.216C12.4466 74.5997 11.3625 73.1503 14.2046 72.3853C14.3569 72.345 14.1987 71.2407 14.2046 70.631C14.2163 69.0781 13.9467 67.4561 14.3276 65.9951C14.9663 63.5794 15.8864 61.2097 16.9529 58.9378C17.8494 57.034 19.0331 55.2452 20.252 53.5197C21.2599 52.099 22.5081 50.8451 23.6508 49.5165C23.4164 47.5149 23.1879 45.5133 22.9535 43.5117C22.7132 43.5577 22.4788 43.6095 22.2385 43.6555L22.2503 43.6497Z" fill="#309E45"/>
<path d="M47.3836 27.3493C47.3661 27.7462 47.3543 28.1488 47.3426 28.5457C48.163 28.1316 48.9834 27.7174 49.8038 27.3033C53.2846 24.2722 56.7654 21.241 60.2462 18.2099C66.0827 13.9536 76.2673 13.7925 81.3069 17.8763L81.4124 17.859C82.9536 19.1359 84.524 20.3783 86.0183 21.7069C87.1141 22.6789 88.1045 23.7603 89.1417 24.7956L89.2413 24.7611C89.2765 24.0709 89.3116 23.3749 89.3468 22.6847C80.7795 10.6348 67.5243 8.90932 56.1618 18.5435C53.0033 21.218 50.296 24.3987 47.3836 27.3493Z" fill="#F1FBE7"/>
<path d="M22.9652 43.5117C23.1996 45.5133 23.4281 47.5149 23.6625 49.5165C23.85 48.1763 24.0434 46.8362 24.2309 45.4903C24.2602 44.9611 24.2837 44.4319 24.313 43.897C24.2485 43.7935 24.2602 43.6957 24.3481 43.6094C24.3716 43.3966 24.395 43.1838 24.4243 42.9768C25.5904 39.3819 26.7566 35.7871 27.9286 32.1923H27.9696C30.2022 28.8505 32.429 25.5088 34.6616 22.167L34.6792 22.1498C35.4293 21.4366 36.1852 20.7176 36.9353 19.9986L36.9705 20.0734L36.947 19.9929C37.3455 19.665 37.744 19.3372 38.1366 19.0093L38.1835 18.9863C40.3634 17.8417 42.5492 16.6914 44.7291 15.5411C44.9166 15.4778 45.11 15.4145 45.2975 15.3512C49.2823 15.0982 53.2729 14.8393 57.2577 14.5863C57.9374 14.2354 58.6113 13.8903 59.2911 13.5395C58.6816 13.2116 58.1073 12.7515 57.4569 12.5674C48.9541 10.1517 42.0335 13.4589 35.8454 18.693C28.1512 25.2039 23.9438 33.5784 22.9652 43.5002V43.5117Z" fill="#F1FBE7"/>
<path d="M113.425 97.2442C115.195 96.6403 117.059 96.3987 118.318 95.4209C119.01 94.8803 118.693 93.0915 118.828 91.8664C117.586 91.7628 116.338 91.6593 115.095 91.55C113.654 91.4235 112.201 91.366 110.771 91.1474C108.204 90.7563 105.655 89.9856 103.088 89.9568C102.163 89.9453 101.219 91.6133 100.281 92.5163C101.131 93.0052 101.928 93.6092 102.831 93.9658C104.342 94.5697 105.907 95.0528 107.466 95.5302C109.411 96.1227 111.374 96.6576 113.414 97.2385L113.425 97.2442Z" fill="#E45A19"/>
<path d="M105.046 45.8066C106.575 43.0975 108.099 40.3885 109.622 37.6794C108.954 37.0352 108.28 36.3853 107.612 35.7411C106.399 43.7072 100.029 47.1468 93.8765 50.7761C92.5815 51.3915 91.3099 52.4671 89.9914 52.5246C87.3778 52.6282 86.8797 54.2099 87.6591 55.8261C88.0927 56.7291 90.0734 56.9362 91.3743 57.4193C92.2943 57.7587 93.2378 58.029 94.1695 58.3339C94.4918 58.052 94.8141 57.7644 95.1364 57.4826C94.6207 57.1317 94.1461 56.6026 93.5777 56.453C92.0072 56.0447 90.3899 55.7973 88.7901 55.4868C88.7198 55.2049 88.6553 54.9288 88.585 54.647C88.6787 54.4342 88.7198 54.0718 88.8663 54.0316C92.2533 52.9848 95.6521 51.9725 99.0509 50.9544C99.3497 50.8049 99.6544 50.6611 99.9533 50.5115C100.188 50.3505 100.422 50.1894 100.657 50.0284C100.944 49.8616 101.225 49.7005 101.512 49.5337C101.647 49.3899 101.787 49.2404 101.922 49.0966L102.039 48.9931C102.309 48.7918 102.573 48.5904 102.842 48.3891C102.965 48.2683 103.094 48.1476 103.217 48.0268C103.299 47.952 103.387 47.8715 103.469 47.7967L103.563 47.7047C103.639 47.6299 103.715 47.5609 103.797 47.4861L103.891 47.4056C103.967 47.3308 104.049 47.2503 104.131 47.1755C104.266 47.0432 104.401 46.9167 104.536 46.7844C104.7 46.4623 104.87 46.1402 105.034 45.8181L105.046 45.8066Z" fill="#469A3C"/>
<path d="M101.975 98.6937C102.145 102.616 106.546 106.09 110.161 105.302C111.204 105.072 112.113 104.256 113.085 103.703C112.171 102.409 111.509 100.759 110.273 99.9073C108.579 98.7397 106.446 98.1703 104.506 97.342C102.784 96.6058 101.348 96.2895 101.975 98.6879L101.975 98.6937Z" fill="#E45A19"/>
<path d="M89.1475 24.7898C88.1103 23.7545 87.1141 22.6732 86.0242 21.7011C84.5299 20.3725 82.9594 19.1359 81.4182 17.859C82.0687 18.6182 82.7836 19.3314 83.3579 20.1367C84.6588 21.96 87.2548 24.1916 86.8563 25.5893C86.1941 27.9418 83.5864 29.7536 81.8577 31.8357C81.4065 32.3763 81.1721 33.0896 80.8381 33.7222C81.5355 34.0501 82.4965 34.8381 82.8891 34.6195C84.5358 33.7165 86.0066 32.5029 87.5595 31.4331C88.0166 31.1167 88.544 30.8981 89.0538 30.6681C89.0889 30.6508 89.3644 30.9327 89.3644 31.0822C89.3937 32.4281 89.3937 33.7798 89.3995 35.1257C89.4581 35.1774 89.5226 35.2292 89.5812 35.281C90.5656 33.5784 91.6087 31.9104 92.5053 30.1677C92.8921 29.42 92.9741 28.5169 93.1968 27.6887C92.4233 27.821 91.6556 27.9935 90.8821 28.0741C90.4895 28.1143 90.0793 27.9705 89.6808 27.913C88.1396 29.2186 86.5985 30.5243 85.0456 31.8184C84.6705 32.1348 84.2428 32.3936 83.8384 32.6754V32.6467C83.6802 32.802 83.522 32.963 83.3638 33.1183C83.0708 33.4462 82.7778 33.774 82.4906 34.1076C82.3559 33.9811 82.0804 33.7798 82.1039 33.7453C82.3559 33.3254 82.6488 32.9285 82.9301 32.5259C83.229 32.2325 83.5278 31.9392 83.8267 31.6459C85.6023 29.3624 87.3778 27.0733 89.1534 24.7898H89.1475Z" fill="#469A3C"/>
<path d="M96.66 29.1266C94.4332 32.2498 92.2357 35.396 89.9269 38.4617C89.6808 38.7838 88.7842 38.6342 88.1865 38.7032C88.6494 37.5644 89.1124 36.4256 89.5753 35.2867C89.5109 35.2349 89.4523 35.1832 89.3937 35.1314C89.0831 35.281 88.6905 35.35 88.4795 35.5858C87.372 36.8109 86.2703 38.0418 85.2624 39.3417C85.0456 39.6235 85.1921 40.1757 85.1745 40.6071C85.6023 40.5553 86.03 40.5265 86.452 40.4403C86.8739 40.354 87.2723 40.1699 87.6943 40.1067C88.6553 39.9629 89.9797 40.2274 90.5305 39.6983C92.435 37.8807 94.1285 35.9367 97.1933 36.3393C97.4863 36.3795 98.2363 35.5743 98.166 35.4132C96.7362 32.1003 98.5821 30.6508 101.418 29.7248C100.317 29.7938 99.2032 29.9491 98.1074 29.8858C97.6093 29.8571 97.1347 29.3912 96.6541 29.1209L96.66 29.1266Z" fill="#469A3C"/>
<path d="M98.0488 61.9057C98.7168 63.2746 99.3849 64.6435 100.059 66.0182V66.0469C102.215 68.9343 104.366 71.8216 106.522 74.709H106.528C108.069 77.7517 109.605 80.7943 111.163 83.8312C111.351 84.1993 111.65 84.5214 111.896 84.8665C111.896 84.4352 111.978 83.9808 111.884 83.5724C111.433 81.6283 110.935 79.6957 110.448 77.7632C110.355 77.6424 110.261 77.5216 110.161 77.4008C106.347 72.3796 102.532 67.3526 98.711 62.3313C98.4883 62.1933 98.2656 62.0552 98.0429 61.9229L98.0488 61.9057Z" fill="#F1FBE7"/>
<path d="M96.66 29.1266C97.1464 29.3969 97.6152 29.8628 98.1133 29.8916C99.2091 29.9549 100.317 29.7996 101.424 29.7306C101.565 29.7766 101.705 29.8226 101.846 29.8686C103.241 31.295 104.635 32.7214 106.03 34.1479C106.563 34.6828 107.091 35.2119 107.624 35.7469C108.292 36.391 108.966 37.041 109.634 37.6852C109.816 36.9547 110.39 35.8101 110.114 35.557C107.067 32.7617 103.997 29.9721 100.703 27.4644C98.8165 26.0264 97.2636 26.8029 96.6659 29.1266L96.66 29.1266Z" fill="#F1FBE7"/>
<path d="M89.5812 35.2867C89.1182 36.4256 88.6553 37.5644 88.1924 38.7032C90.6067 35.2867 93.1206 31.9277 95.3239 28.3846C95.658 27.8497 94.5563 26.4578 94.1168 25.4628C92.6342 26.2795 91.1575 27.0963 89.6749 27.913C90.0734 27.9705 90.4836 28.1143 90.8762 28.0741C91.6556 27.9993 92.4232 27.8267 93.1909 27.6887C92.9682 28.5227 92.8862 29.42 92.4994 30.1677C91.6029 31.9104 90.5598 33.5842 89.5753 35.281L89.5812 35.2867Z" fill="#F1FBE7"/>
<path d="M88.7901 55.4868C90.3899 55.7973 92.0013 56.0447 93.5777 56.453C94.1519 56.6026 94.6207 57.126 95.1364 57.4826C94.8141 57.7644 94.4918 58.052 94.1695 58.3339C94.0816 58.4259 93.9996 58.5122 93.9117 58.6042C94.7555 59.0643 95.5935 59.5302 96.4373 59.9904C96.3436 59.6913 96.1033 59.3519 96.1795 59.1103C97.5449 54.647 94.5856 55.3832 91.9252 55.6306C90.8938 55.7283 89.8332 55.55 88.7901 55.4925L88.7901 55.4868Z" fill="#14611C"/>
<path d="M57.2577 14.5978C53.2729 14.8508 49.2823 15.1097 45.2975 15.3628C46.7332 15.1729 48.163 14.8739 49.6046 14.8278C52.1302 14.7473 54.6617 14.8163 57.1932 14.8278C57.2987 14.7761 57.3163 14.7013 57.2577 14.6035V14.5978Z" fill="#469A3C"/>
<path d="M99.0567 50.9487C95.658 51.9667 92.2592 52.979 88.8721 54.0258C88.7256 54.0718 88.6787 54.4284 88.5909 54.6413C92.0775 53.4104 95.5701 52.1795 99.0567 50.9429V50.9487Z" fill="#14611C"/>
<path d="M109.945 44.6045C110.759 43.851 111.503 42.3383 112.57 44.3744C112.171 43.7245 111.767 43.0803 111.369 42.4304C110.894 43.1551 110.419 43.8798 109.945 44.5987V44.6045Z" fill="#14611C"/>
<path d="M107.56 63.0273C106.347 63.4126 105.133 63.798 103.92 64.1891C105.133 63.8037 106.347 63.4184 107.56 63.0273Z" fill="#14611C"/>
<path d="M107.114 48.4064C107.477 47.9578 107.841 47.5091 108.198 47.0605C107.835 47.5091 107.472 47.9578 107.114 48.4064Z" fill="#14611C"/>
<path d="M98.67 58.8803C98.5938 57.9427 98.5118 57.0052 98.4356 56.0734C98.5118 57.011 98.5938 57.9485 98.67 58.8803Z" fill="#14611C"/>
<path d="M113.724 53.9683C113.578 54.4572 113.431 54.9403 113.291 55.4292C113.437 54.9403 113.584 54.4572 113.724 53.9683Z" fill="#14611C"/>
<path d="M112.546 57.2123C112.294 57.6667 112.042 58.1268 111.79 58.5812C112.042 58.121 112.294 57.6667 112.546 57.2123Z" fill="#14611C"/>
<path d="M111.626 58.817C111.38 59.1621 111.134 59.5072 110.894 59.8523C111.14 59.5072 111.386 59.1621 111.626 58.817Z" fill="#14611C"/>
<path d="M83.8326 32.6467V32.6754C83.8326 32.3303 83.8208 31.9852 83.8208 31.6401C83.522 31.9335 83.2173 32.2268 82.9184 32.5201L83.0063 32.6294C83.2817 32.6294 83.5513 32.6409 83.8267 32.6467H83.8326Z" fill="#14611C"/>
<path d="M98.0488 61.9057C98.2715 62.0437 98.4942 62.1818 98.7169 62.314C98.4532 62.015 98.1836 61.7216 97.9199 61.4225C97.9668 61.5836 98.0078 61.7389 98.0488 61.8999V61.9057Z" fill="#14611C"/>
<path d="M101.922 62.2738C101.7 62.0035 101.471 61.7389 101.248 61.4743C101.471 61.7446 101.7 62.0092 101.922 62.2738Z" fill="#14611C"/>
<path d="M108.356 134.86C108.521 135.004 108.679 135.148 108.843 135.286C108.679 135.142 108.521 134.999 108.356 134.86Z" fill="#14611C"/>
<path d="M98.3653 55.4407L98.4414 55.3487L98.3828 55.2452C98.336 55.2912 98.2891 55.343 98.2422 55.389C98.2832 55.4062 98.3242 55.4235 98.3653 55.4407Z" fill="#14611C"/>
<path d="M96.6893 60.2147L96.6541 60.2779L96.7245 60.2549L96.6893 60.2147Z" fill="#14611C"/>
<path d="M110.161 77.3893C110.255 77.5101 110.349 77.6309 110.448 77.7517C110.355 77.6309 110.261 77.5101 110.161 77.3893Z" fill="#469A3C"/>
<path d="M107.554 134.136C107.659 134.228 107.759 134.32 107.864 134.406C107.759 134.314 107.659 134.222 107.554 134.136Z" fill="#14611C"/>
<path d="M109.06 135.459C109.148 135.545 109.241 135.631 109.329 135.723C109.241 135.637 109.148 135.551 109.06 135.459Z" fill="#14611C"/>
<path d="M109.441 135.815C109.523 135.879 109.605 135.948 109.687 136.011C109.605 135.942 109.523 135.879 109.441 135.815Z" fill="#14611C"/>
<path d="M109.763 136.091C109.839 136.172 109.915 136.258 109.986 136.339C109.909 136.258 109.833 136.172 109.763 136.091Z" fill="#14611C"/>
<path d="M110.068 136.413C110.15 136.494 110.232 136.575 110.32 136.655C110.238 136.575 110.155 136.494 110.068 136.413Z" fill="#14611C"/>
<path d="M93.9175 58.5984C94.0054 58.5064 94.0875 58.4201 94.1754 58.3281C93.2437 58.029 92.3002 57.7587 91.3802 57.4193C90.0793 56.9362 88.0986 56.7291 87.665 55.8261C86.8856 54.2099 87.3837 52.6339 89.9972 52.5246C91.3157 52.4728 92.5873 51.3915 93.8824 50.7761C93.7476 50.569 93.607 50.3677 93.4722 50.1607C92.9741 49.9363 92.476 49.7063 91.9779 49.482C92.4408 49.0966 92.8628 48.6422 93.3784 48.3489C93.8882 48.0613 94.6207 48.0785 95.0309 47.7162C96.5369 46.376 97.9433 44.9323 99.3849 43.5232C100.164 42.7582 101.325 42.0967 101.588 41.188C101.782 40.5265 100.879 39.474 100.311 38.7032C99.8947 38.1396 99.2325 37.7484 98.6817 37.2768C99.42 36.9835 100.158 36.6901 100.897 36.391C101.213 34.2111 101.524 32.037 101.84 29.8628C101.7 29.8168 101.559 29.7708 101.418 29.7248C98.5821 30.6508 96.7362 32.1003 98.166 35.4132C98.2363 35.5743 97.4863 36.3795 97.1933 36.3393C94.1285 35.9309 92.435 37.8807 90.5305 39.6983C89.9738 40.2274 88.6553 39.9686 87.6943 40.1067C87.2723 40.1699 86.868 40.354 86.452 40.4403C86.03 40.5265 85.6023 40.5553 85.1745 40.6071C85.1921 40.1757 85.0456 39.6235 85.2624 39.3417C86.2762 38.0418 87.372 36.8109 88.4795 35.5858C88.6905 35.3557 89.0831 35.281 89.3937 35.1314C89.3878 33.7855 89.3937 32.4339 89.3585 31.088C89.3585 30.9384 89.0831 30.6566 89.0479 30.6738C88.5381 30.9039 88.0107 31.1225 87.5536 31.4388C85.9949 32.5086 84.5299 33.7222 82.8832 34.6253C82.4906 34.8381 81.5296 34.0501 80.8323 33.728C81.1663 33.0953 81.4007 32.3821 81.8519 31.8414C83.5806 29.7593 86.1883 27.9475 86.8504 25.5951C87.2431 24.1974 84.653 21.96 83.352 20.1424C82.7719 19.3372 82.0629 18.6182 81.4124 17.8648C81.4124 17.8648 81.3069 17.882 81.3011 17.882C80.3342 17.7727 79.3321 17.7842 78.4062 17.5254C76.5369 17.0077 74.6441 15.6964 72.8803 15.8747C68.6318 16.3003 64.4478 17.3931 60.2404 18.2156C56.7596 21.2468 53.2787 24.2779 49.7979 27.3091C50.7414 29.6673 51.6614 31.9162 49.7686 34.4182C49.4346 34.8553 51.0461 36.7074 51.761 37.9095C52.4994 37.179 53.226 36.4371 53.9819 35.7238C54.3159 35.4075 54.7144 35.1602 55.0836 34.8783C55.4352 35.4995 56.0388 36.1035 56.0857 36.7419C56.238 38.8183 56.115 40.9176 56.279 42.994C56.3083 43.3391 57.2518 43.874 57.7733 43.874C62.555 43.874 67.3368 43.69 72.1185 43.7878C72.7631 43.7993 73.6245 45.0071 73.9585 45.8239C74.8668 48.0498 75.5231 50.3792 76.3611 52.6397C76.4431 52.864 77.0702 53.025 77.4276 53.002C80.7385 52.7719 82.5492 54.9403 81.6878 58.052C81.5706 58.4719 81.8343 58.9895 81.9222 59.4612C82.6137 59.2024 83.7857 59.0873 83.9263 58.6617C84.7291 56.1367 85.9421 57.0972 87.3134 58.0635C87.999 58.5467 88.8077 58.8688 89.5636 59.2656C88.6436 60.7898 89.3409 61.7964 90.6711 62.6074C90.718 62.6361 90.6594 62.8144 90.6887 62.9122C90.9114 63.6254 91.1399 64.3386 91.3685 65.0519C91.5677 64.3617 91.7025 63.6484 91.9896 62.9985C92.1947 62.5384 92.6577 62.1933 92.9272 61.7504C93.1089 61.457 93.1558 61.0774 93.2554 60.7381C93.4781 60.0249 93.6949 59.3116 93.9117 58.5984H93.9175ZM95.3767 44.57C95.7341 44.4204 95.9568 44.2479 96.0389 44.2997C96.3201 44.4722 96.5487 44.7253 96.8006 44.9496C96.6248 45.0129 96.4198 45.1624 96.2791 45.1164C96.0213 45.0301 95.7986 44.8346 95.3767 44.57Z" fill="#309E45"/>
<path d="M100.053 66.0182C98.8399 65.0979 97.6035 64.2121 96.4315 63.2458C95.9392 62.8374 95.6169 62.2278 95.1423 61.7906C95.0427 61.6986 94.357 61.9919 94.3629 62.0495C94.4508 62.7052 94.5797 63.3666 94.7848 63.9935C95.0544 64.816 95.4528 65.604 95.6814 66.4323C95.7458 66.6681 95.4001 67.2375 95.2126 67.2548C94.7907 67.2835 94.3453 67.0707 93.9117 66.9442C93.1558 66.7141 92.3998 66.4668 91.6497 66.2252C91.5794 66.4495 91.3802 66.7601 91.4622 66.8867C92.0892 67.8069 92.7045 68.7502 93.4722 69.5497C93.7828 69.8718 94.4567 69.8545 94.9665 69.9926C94.4098 70.1651 93.8589 70.378 93.2905 70.5103C92.5639 70.6828 91.8197 70.7921 91.0813 70.9244C91.5326 71.5225 91.9662 72.138 92.4526 72.7074C92.8862 73.2193 93.607 73.6047 93.7886 74.1741C94.0113 74.8816 93.8003 75.7155 93.7769 76.492C93.2612 76.2965 92.728 76.1297 92.224 75.9054C91.5853 75.6235 90.97 75.2899 90.3488 74.9793C90.1437 75.6235 89.9445 76.2677 89.7218 76.9062C89.5988 77.2628 89.423 77.6021 89.2765 77.953C89.001 77.6366 88.7315 77.3203 88.4561 77.0039C87.8525 76.331 87.2899 75.6005 86.5985 75.0311C86.4285 74.8873 85.5378 75.1634 85.4499 75.4107C84.7584 77.3548 86.8153 79.4139 88.8545 79.3219C91.1692 79.2184 93.5074 79.6842 95.8396 79.7245C96.701 79.7418 97.5859 79.2874 98.4297 78.971C98.8692 78.8042 99.4962 78.1715 99.6017 78.2636C100.1 78.6719 100.446 79.2586 100.844 79.782C100.393 80.0351 99.8009 80.1904 99.5138 80.5643C99.1153 81.0877 98.834 81.7549 98.7051 82.399C98.6348 82.7499 98.9688 83.1813 99.127 83.5724C99.3966 83.1123 99.5665 82.3933 99.965 82.238C100.938 81.8469 102.028 81.7491 103.041 81.4615C103.516 81.3235 103.932 81.0129 104.378 80.7828C104.014 80.2882 103.563 79.8338 103.317 79.2874C102.907 78.3844 102.625 77.4238 102.291 76.4863C102.543 76.492 102.872 76.4058 103.03 76.5266C103.545 76.9349 104.003 77.4181 104.483 77.8782C105.169 76.8256 105.848 75.7731 106.534 74.7148H106.528C105.719 74.1166 104.864 73.5759 104.126 72.9087C103.317 72.1725 102.614 71.3212 101.102 70.8151C101.143 70.7288 101.342 70.5908 101.559 70.562C101.629 70.5505 101.852 70.9071 101.817 70.9589C101.694 71.1314 101.494 71.304 101.295 71.3557C101.119 71.396 100.903 71.2637 101.102 70.8151C101.266 69.0321 100.668 67.5424 100.065 66.0527V66.0239L100.053 66.0182ZM101.371 76.0779C100.733 75.1864 100.188 74.5767 99.8595 73.8692C99.7541 73.6449 100.235 73.156 100.451 72.7937C100.92 73.5241 101.424 74.2316 101.817 74.9966C101.905 75.1691 101.606 75.543 101.371 76.0779Z" fill="#309E45"/>
<path d="M88.122 87.5123C87.1903 87.4088 86.7743 87.3455 86.3523 87.3168C86.0593 87.2938 85.7663 87.3168 85.4734 87.3168C85.737 87.5123 85.9949 87.7194 86.2644 87.9034C87.4423 88.6799 88.6202 89.4564 89.8156 90.2099C90.009 90.3307 90.2668 90.3594 90.4895 90.4285C90.6008 90.0258 90.677 89.6117 90.8235 89.2263C90.97 88.8352 91.1868 88.4671 91.3743 88.0875C91.5443 88.4038 91.7376 88.7087 91.8783 89.0308C92.0424 89.4161 92.1654 89.8188 92.3002 90.2156C92.851 89.9683 93.4253 89.7497 93.9527 89.4564C94.7555 89.0135 95.4646 88.3176 96.3143 88.076C99.2736 87.2305 102.28 86.5345 105.268 85.7696C105.356 85.7466 105.438 85.551 105.444 85.4302C105.52 84.5272 105.579 83.6299 105.643 82.7269C104.583 83.2158 103.264 83.4631 102.508 84.2396C100.416 86.385 97.9023 86.7301 95.1364 86.4483C94.861 86.4195 94.3688 86.1722 94.3746 86.0226C94.3922 82.33 91.5384 84.0095 89.798 83.6817C89.13 83.5552 88.3916 83.5379 87.7353 83.6932C86.8856 83.8945 86.0886 84.3086 85.2682 84.6365C86.1004 85.0391 86.9208 85.4705 87.7646 85.8443C88.333 86.0917 88.9424 86.2585 89.5343 86.4655C88.9717 86.8854 88.4092 87.2995 88.1162 87.5123H88.122Z" fill="#309E45"/>
<path d="M14.6909 80.4722C15.9684 80.4895 17.2517 80.5067 18.5292 80.524C19.1035 80.1961 19.7129 79.9028 20.2169 79.4887C20.2872 79.4312 19.9063 78.4994 19.625 78.4361C18.6523 78.2118 17.4744 77.8379 16.6716 78.1888C15.8336 78.5511 15.3355 79.6785 14.6909 80.4722Z" fill="#309E45"/>
<path d="M60.4806 82.123C61.3772 81.3522 61.9808 80.8346 62.5844 80.3227C61.8812 79.9776 61.1662 79.3391 60.4748 79.3621C59.6837 79.3851 58.916 80.0006 58.1367 80.3572C58.7988 80.8576 59.4668 81.358 60.4865 82.1287L60.4806 82.123Z" fill="#309E45"/>
<path d="M24.4126 42.9768C24.3891 43.1896 24.3657 43.4024 24.3364 43.6094C24.3657 43.6382 24.4302 43.6842 24.4243 43.7015C24.395 43.7705 24.3481 43.8338 24.3071 43.897C24.2778 44.4262 24.2544 44.9554 24.2251 45.4903C27.4305 45.9562 25.5143 43.1206 26.4753 42.137C25.7897 42.4188 25.0982 42.6949 24.4126 42.9768Z" fill="#309E45"/>
<path d="M110.044 84.0786C109.786 83.6587 109.528 83.2446 109.265 82.8247C108.714 83.5034 108.128 84.1648 107.665 84.8953C107.624 84.9586 108.392 85.7581 108.819 85.7926C109.581 85.8616 110.366 85.6028 111.146 85.482L110.044 84.0728V84.0786Z" fill="#309E45"/>
<path d="M34.6499 22.167C32.4173 25.5088 30.1905 28.8505 27.9579 32.1923C28.579 31.6746 29.3584 31.2605 29.8038 30.6278C31.4973 28.2006 33.1029 25.7101 34.691 23.2139C34.8492 22.9665 34.6734 22.5179 34.6499 22.167Z" fill="#469A3C"/>
<path d="M38.1308 19.0151C37.7323 19.3429 37.3338 19.6708 36.9412 19.9986C37.3397 19.6708 37.7381 19.3429 38.1308 19.0151Z" fill="#469A3C"/>
<path d="M60.2462 18.2099C64.4537 17.3874 68.6377 16.2945 72.8862 15.8689C74.65 15.6906 76.5428 17.002 78.4121 17.5196C79.338 17.7785 80.34 17.767 81.3069 17.8763C76.2673 13.7925 66.0827 13.9536 60.2462 18.2099Z" fill="#469A3C"/>
<path d="M24.3071 43.897C24.3481 43.8338 24.395 43.7705 24.4243 43.7015C24.4302 43.6842 24.3716 43.6382 24.3364 43.6094C24.2485 43.6957 24.2426 43.7935 24.3012 43.897H24.3071Z" fill="#469A3C"/>
<path d="M93.4722 50.1664C93.607 50.3735 93.7476 50.5748 93.8824 50.7818C100.035 47.1525 106.399 43.713 107.618 35.7469C107.085 35.2119 106.557 34.6828 106.024 34.1479C105.831 34.9416 105.69 35.7584 105.432 36.5291C103.358 42.6777 98.1895 46.2322 93.4722 50.1607V50.1664Z" fill="#14611C"/>
<path d="M82.9184 32.5259C82.6371 32.9285 82.3441 33.3254 82.0921 33.7453C82.0687 33.7798 82.3441 33.9811 82.4789 34.1076C82.7719 33.7798 83.0649 33.4519 83.3579 33.1183C83.2407 32.9573 83.1235 32.7962 83.0122 32.6294L82.9243 32.5201L82.9184 32.5259Z" fill="#14611C"/>
<path d="M83.0122 32.6352C83.1294 32.7962 83.2466 32.9573 83.3579 33.1241C83.5161 32.9688 83.6743 32.8077 83.8326 32.6524C83.5571 32.6524 83.2876 32.6409 83.0122 32.6352Z" fill="#090A0C"/>
<path d="M100.059 66.0469C100.656 67.5366 101.26 69.0263 101.858 70.516C102.608 71.3155 103.305 72.1667 104.114 72.903C104.852 73.5702 105.708 74.1108 106.516 74.709C104.366 71.8216 102.209 68.9343 100.059 66.0469Z" fill="#469A3C"/>
<path d="M93.4722 50.1664C98.1895 46.238 103.358 42.6834 105.432 36.5348C105.696 35.7584 105.831 34.9474 106.024 34.1536C104.63 32.7272 103.235 31.3008 101.84 29.8743C101.524 32.0485 101.213 34.2284 100.897 36.4025C101.201 36.6384 101.512 36.8684 101.817 37.1043C101.694 37.2365 101.571 37.3688 101.448 37.5069C101.26 37.1388 101.078 36.7707 100.891 36.4083C100.153 36.7016 99.4142 36.995 98.6758 37.2941C99.2267 37.7657 99.8888 38.1568 100.305 38.7205C100.873 39.4912 101.776 40.5438 101.582 41.2052C101.313 42.114 100.158 42.7754 99.379 43.5404C97.9375 44.9496 96.5252 46.3875 95.0251 47.7334C94.6207 48.0958 93.8824 48.0785 93.3726 48.3661C92.8569 48.6595 92.435 49.1138 91.972 49.4992C92.4701 49.7235 92.9682 49.9536 93.4663 50.1779L93.4722 50.1664Z" fill="#469A3C"/>
<path d="M95.3767 44.57C95.7986 44.8346 96.0213 45.0301 96.2791 45.1164C96.4198 45.1624 96.6248 45.0129 96.8006 44.9496C96.5487 44.7253 96.3201 44.4722 96.0389 44.2997C95.9568 44.2479 95.7283 44.4147 95.3767 44.57Z" fill="#469A3C"/>
<path d="M101.371 76.0779C101.606 75.543 101.911 75.1691 101.817 74.9966C101.424 74.2316 100.914 73.5184 100.451 72.7937C100.24 73.1618 99.7541 73.6449 99.8595 73.8692C100.188 74.5767 100.733 75.1864 101.371 76.0779Z" fill="#469A3C"/>
<path d="M100.328 71.1027C100.891 71.258 101.108 71.3903 101.284 71.35C101.483 71.304 101.682 71.1257 101.805 70.9531C101.846 70.8956 101.618 70.5448 101.547 70.5563C101.33 70.585 101.125 70.7288 100.322 71.1027H100.328Z" fill="#469A3C"/>
<path d="M100.897 36.3968C101.084 36.7649 101.266 37.133 101.453 37.4954C101.577 37.3631 101.7 37.2308 101.823 37.0928C101.518 36.8569 101.207 36.6269 100.903 36.391L100.897 36.3968Z" fill="#309E45"/>
<path d="M204.386 141.987C204.164 141.492 204.044 140.921 203.716 140.515C196.65 131.746 186.886 127.983 176.32 125.718C175.928 125.636 175.485 125.617 175.157 125.42C174.013 124.728 172.913 123.973 171.795 123.244C172.806 122.755 173.792 122.203 174.828 121.79C182.481 118.757 189.844 115.363 193.844 107.444C193.977 107.177 194.786 107.108 195.254 107.177C197.112 107.438 198.97 108.129 200.796 108.028C205.504 107.761 207.267 104.018 204.885 99.9249C204.721 99.6457 205.074 98.6876 205.403 98.548C207.166 97.8056 209.258 97.5645 210.731 96.4667C211.906 95.5911 213.334 93.2814 212.93 92.3995C211.976 90.3246 209.972 88.751 208.443 86.9235C207.767 86.1177 206.768 85.2294 206.705 84.322C206.143 76.2826 201.87 70.0706 197.01 64.1569C195.898 62.799 195.974 62.3358 197.541 61.5363C207.059 56.6632 210.048 41.8852 203.254 33.6809C203.008 33.3826 202.566 32.9956 202.622 32.7291C203.804 26.9232 198.496 24.5374 196.164 20.6414C193.497 16.1934 188.611 15.3939 183.846 14.3851C181.691 13.9282 179.442 12.1515 178.013 10.3558C170.575 1.00934 161.051 -0.107414 150.213 2.27839C148.083 2.74793 145.53 1.3266 143.185 0.723809C133.636 -1.72544 126.071 2.36087 119.1 8.17944C112.724 13.4967 109.204 20.6668 106.233 28.2493C105.38 30.4321 103.718 32.4879 101.967 34.0933C89.4669 45.5401 85.0368 60.1658 85.3844 76.5428C85.6056 87.0758 87.9755 97.2282 93.7454 106.188C97.9797 112.755 103.743 117.837 110.916 121.162C111.327 121.353 111.719 121.575 112.117 121.784C111.769 122.07 111.466 122.444 111.068 122.634C105.639 125.192 100.299 127.971 94.7376 130.198C88.519 132.685 84.0003 137.121 79.7534 142H83.1977C85.4286 139.887 87.6532 137.774 89.8904 135.667C90.0926 135.477 90.3833 135.388 90.6298 135.255C90.6045 135.56 90.5982 135.871 90.5602 136.175C90.2885 138.117 90.0168 140.058 89.7387 141.994H92.1465C92.0896 141.289 91.9443 140.579 91.9822 139.881C92.2792 134.481 95.7172 132.254 100.457 130.794C117.261 125.629 134.432 124.766 151.849 125.534C164.23 126.08 176.44 127.235 188.087 131.803C188.359 131.911 188.593 132.933 188.403 133.301C186.905 136.226 185.306 139.1 183.739 141.987H186.147C187.575 139.443 188.915 136.848 190.507 134.411C190.811 133.942 192.403 133.719 192.903 134.081C196.075 136.391 199.109 138.897 202.186 141.34C202.464 141.556 202.743 141.772 203.021 141.987H204.398H204.386ZM194.773 65.4386L194.957 65.7305C195.14 65.9716 195.323 66.2128 195.513 66.4475C195.677 66.6506 195.841 66.86 196.012 67.063C196.195 67.3105 196.385 67.5516 196.568 67.7991C197.086 68.5541 197.611 69.3029 198.129 70.058L198.148 70.1912L198.274 70.2356C198.868 71.1811 199.463 72.1265 200.057 73.0656C200.12 73.1671 200.177 73.2686 200.24 73.3638C200.657 73.8461 201.276 74.2585 201.453 74.8169C202.439 77.8943 203.438 80.9781 204.177 84.1253C204.468 85.3499 204.089 86.7332 204.019 88.0466C202.919 87.6279 201.826 87.2091 200.726 86.7966C199.905 86.5428 199.083 86.2827 198.262 86.0416C194.274 84.8613 190.855 86.0733 188.093 88.9159C185.521 91.5619 188.447 93.8335 188.877 96.3145C189.401 99.3411 190.21 102.964 189.067 105.502C186.058 112.19 180.371 116.511 173.463 118.897C171.043 119.735 167.971 120.731 165.81 119.95C151.729 114.855 137.554 114.379 123.038 117.527C119.606 118.269 115.643 119.087 112.515 118.066C108.774 116.841 105.608 113.757 102.302 111.327C96.1469 106.809 93.3283 100.115 90.8257 93.2434C90.4591 91.8855 90.0863 90.5276 89.7197 89.1697C87.3688 81.5555 88.3357 73.8841 89.6692 66.3079C91.5335 55.7495 95.0662 45.7875 101.98 37.3674C102.555 36.6631 103.794 33.0336 105.191 37.0755C105.247 37.2405 105.57 37.3103 105.766 37.4245C106.246 37.1073 106.72 36.7837 107.2 36.4664C108.148 32.856 108.888 29.1757 110.076 25.6478C112.983 17.0374 118.702 10.6541 126.349 5.94592C131.816 2.58296 137.611 1.11721 143.931 3.18575C144.594 3.40149 145.195 3.82662 145.827 4.15657C145.214 4.53728 144.601 4.92434 143.988 5.30505C140.284 9.09949 136.543 12.8559 132.934 16.7328C132.41 17.2912 132.53 18.4523 132.347 19.3343C133.029 18.8204 133.8 18.3952 134.382 17.7861C135.993 16.0792 137.516 14.2962 139.077 12.5449C140.714 11.1173 142.351 9.6896 143.994 8.26192L144.057 8.21751C145.353 7.44974 146.642 6.67562 147.937 5.90785C157.619 0.254263 172.547 4.32155 178.02 14.2201C178.386 14.88 177.666 16.1427 177.444 17.1262C177.128 17.6528 176.812 18.1731 176.496 18.6998L176.149 19.0424C175.94 19.2899 175.732 19.5374 175.523 19.7912H175.517C174.474 21.5107 173.431 23.2176 172.382 24.9308C174.601 23.1351 176.825 21.3331 179.043 19.5374C179.41 19.2138 179.776 18.8902 180.137 18.5602C180.206 18.5348 180.263 18.4904 180.301 18.4206C180.472 18.2556 180.636 18.0907 180.807 17.9257C181.868 18.0399 182.936 18.1605 183.998 18.2747C183.739 19.3724 183.48 20.4701 183.221 21.5678L182.279 23.3635C182.229 23.4777 182.178 23.5983 182.127 23.7125L182.115 23.814L179.934 27.3229C179.631 27.6973 179.328 28.0717 179.024 28.4397L178.974 28.4841C178.475 29.6516 177.975 30.8192 177.476 31.9867C178.538 31.3522 179.599 30.724 180.661 30.0895L180.946 29.7468C181.072 29.6263 181.205 29.5057 181.331 29.3851C182.747 27.3166 184.162 25.2417 185.578 23.1732C187.379 18.0336 188.074 17.5323 191.045 20.0386C194.065 22.5831 196.72 25.5653 199.538 28.3572C199.709 29.3534 200.177 30.4131 199.993 31.3395C198.97 36.5743 195.532 40.2418 191.696 43.6048L191.316 43.922C191.259 43.9918 191.184 44.0235 191.095 44.0172C189.629 44.8675 188.163 45.7177 186.697 46.568C186.608 46.6568 186.507 46.6885 186.381 46.6695C184.719 47.3611 183.063 48.0781 181.382 48.7444C180.206 49.2076 179.005 49.5883 177.811 50.0071C179.144 50.2292 180.478 50.6416 181.805 50.6353C185.951 50.6099 186.488 51.2507 185.091 54.969L185.11 54.9817C185.249 55.0769 185.382 55.1784 185.521 55.2736C186.197 55.9716 186.867 56.6696 187.537 57.3675C187.638 57.4881 187.746 57.6086 187.847 57.7292C189.225 59.1569 190.602 60.5782 191.98 62.0059C192.049 62.082 192.119 62.1582 192.188 62.2407C192.877 63.1036 193.56 63.9666 194.249 64.8232C194.381 64.9754 194.514 65.1214 194.647 65.2737C194.622 65.3752 194.66 65.4323 194.767 65.445L194.773 65.4386ZM196.391 43.6999C196.701 43.3192 197.017 42.9449 197.326 42.5641C197.592 42.2405 197.851 41.9169 198.116 41.5933C198.205 41.4855 198.293 41.3776 198.376 41.2697C198.534 41.0413 198.698 40.8065 198.856 40.5781C199.008 40.4004 199.153 40.2228 199.305 40.0451C199.475 39.7596 199.652 39.474 199.823 39.1885C199.918 39.0616 200.012 38.941 200.107 38.8141L201.251 37.139C201.327 36.9994 201.403 36.8598 201.485 36.7265C201.573 36.5108 201.662 36.2887 201.75 36.073C201.896 36.257 202.041 36.4347 202.18 36.6187C202.382 36.8979 202.585 37.1834 202.787 37.4626C202.919 37.6783 203.052 37.8941 203.185 38.1035C203.248 38.2304 203.311 38.3573 203.374 38.4842C203.539 38.5413 203.709 38.5984 203.874 38.6555C203.823 38.7697 203.773 38.8839 203.716 38.9981C203.861 39.3915 204.006 39.7849 204.158 40.1847C204.234 40.3624 204.31 40.5464 204.379 40.724C204.449 41.1111 204.518 41.5045 204.582 41.8916C204.645 42.1898 204.708 42.488 204.771 42.7799C204.771 44.1124 204.771 45.4385 204.771 46.771C204.714 47.1771 204.657 47.5769 204.594 47.983C204.531 48.3827 204.468 48.7825 204.405 49.1822C204.082 50.0388 203.76 50.8954 203.438 51.752C203.349 51.9931 203.261 52.2279 203.166 52.469C203.046 52.6911 202.926 52.9195 202.806 53.1416C202.142 54.0997 201.479 55.0515 200.815 56.0097C200.48 56.3333 200.145 56.6569 199.804 56.9805C199.241 57.4881 198.679 57.9894 198.116 58.497C197.775 58.7508 197.434 59.0109 197.093 59.2647C196.96 59.3599 196.834 59.4614 196.701 59.5566C195.848 59.8104 194.988 60.0579 194.135 60.3117C193.99 60.1912 193.851 60.0769 193.705 59.9564C193.629 59.8993 193.56 59.8422 193.484 59.7787C191.158 56.7965 186.975 54.8866 187.872 50.0388C189.37 49.0807 190.861 48.1226 192.359 47.1644C192.486 47.0693 192.618 46.9677 192.745 46.8725C193.2 46.5172 193.655 46.1619 194.11 45.8065C194.344 45.6035 194.577 45.4005 194.811 45.1974C195.329 44.6898 195.848 44.1885 196.372 43.6809L196.391 43.6999ZM115.763 123.897C115.77 124.157 115.776 124.417 115.789 124.678C115.46 124.627 115.138 124.576 114.809 124.525C115.024 124.233 115.176 123.853 115.46 123.669C116.705 122.869 117.912 121.93 119.271 121.403C128.51 117.799 138.186 117.19 147.855 118.339C153.929 119.056 159.857 121.035 165.829 122.514C166.366 122.647 166.783 123.263 167.257 123.656C166.669 123.758 166.075 123.967 165.494 123.935C158.574 123.529 151.647 122.717 144.733 122.755C135.077 122.806 125.42 123.491 115.763 123.903V123.897ZM205.074 96.2637C203.128 96.1178 202.06 96.2066 201.087 95.9337C197.548 94.9502 194.028 93.8779 190.533 92.7421C190.122 92.6088 189.591 91.5175 189.635 91.4794C191.133 90.2104 192.745 87.9515 194.23 88.0276C197.232 88.1862 200.158 89.6647 203.147 90.4832C203.931 90.6989 204.828 90.4832 205.669 90.4832C207.065 90.4705 208.854 89.9185 209.764 90.5784C211.23 91.6444 211.66 93.5987 209.479 94.6901C207.849 95.5086 206.022 95.9337 205.062 96.2637H205.074ZM201.605 105.915C195.544 105.826 192.188 102.603 191.645 96.9997C191.613 96.6761 192.625 95.8576 192.896 95.9591C195.664 96.9744 198.597 97.7992 201.017 99.3855C202.376 100.274 203.084 102.431 203.602 104.157C203.728 104.589 201.99 105.585 201.605 105.908V105.915Z" fill="#090A0C"/>
<path d="M183.726 141.987C185.294 139.1 186.899 136.226 188.39 133.301C188.58 132.933 188.352 131.911 188.074 131.803C176.427 127.235 164.217 126.08 151.837 125.534C134.426 124.773 117.255 125.629 100.444 130.794C95.7045 132.254 92.2603 134.481 91.9696 139.881C91.9316 140.579 92.077 141.289 92.1339 141.994H183.726V141.987Z" fill="white"/>
<path d="M202.174 141.34C199.096 138.897 196.063 136.397 192.89 134.081C192.397 133.719 190.804 133.948 190.495 134.411C188.902 136.841 187.562 139.443 186.134 141.987H202.319C202.269 141.772 202.224 141.556 202.174 141.34Z" fill="white"/>
<path d="M89.726 141.987C89.9978 140.046 90.2759 138.104 90.5476 136.169C90.5919 135.864 90.5982 135.553 90.6171 135.249C90.3707 135.382 90.0799 135.471 89.8777 135.661C87.6405 137.761 85.416 139.881 83.1851 141.994H89.726V141.987Z" fill="white"/>
<path d="M202.174 141.34C202.224 141.556 202.269 141.772 202.319 141.987H203.008C202.73 141.772 202.452 141.556 202.174 141.34Z" fill="#14611C"/>
<path d="M89.7134 89.1634C90.0799 90.5213 90.4528 91.8792 90.8194 93.237C91.0026 92.3741 91.4513 91.4794 91.3313 90.6609C90.6108 85.7941 95.6161 79.0999 100.375 80.0644C105.69 81.143 110.739 83.7953 115.732 86.1367C124.529 90.2675 132.871 95.6863 142.016 98.6812C150.718 101.53 159.825 98.9921 168.243 95.369C172.629 93.4781 176.838 91.1812 181.224 89.2967C184.794 87.7548 188.422 86.0162 192.195 85.369C194.976 84.8931 198.034 86.0416 200.967 86.4667C201.839 86.7649 202.705 87.0631 203.577 87.3614C203.589 86.2446 203.722 85.1152 203.589 84.0238C203.444 82.8563 203.052 81.7205 202.761 80.572C202.761 81.1621 202.793 81.7585 202.73 82.3423C202.705 82.5517 202.433 82.7293 202.269 82.9197C202.047 82.6278 201.788 82.355 201.618 82.0377C198.913 76.9933 196.328 71.8917 193.49 66.9234C191.677 63.7508 189.509 60.7813 187.499 57.7165L187.524 57.7419C187.474 57.7229 187.423 57.7102 187.373 57.6911C187.411 57.6087 187.442 57.5262 187.48 57.4437L187.543 57.3675C186.867 56.6696 186.197 55.9716 185.521 55.2736C185.382 55.1784 185.249 55.0769 185.11 54.9817L185.091 54.969C184.643 54.931 183.821 54.969 183.796 54.8485C183.202 51.771 180.535 53.0211 178.847 52.2343C177.975 51.8282 177.786 49.969 177.286 48.7634C180.314 48.0654 183.347 47.3675 186.374 46.6695C186.494 46.6885 186.602 46.6505 186.69 46.5616C188.156 45.7114 189.623 44.8611 191.089 44.0172C191.177 44.0235 191.253 43.9918 191.31 43.922C191.436 43.8142 191.563 43.7126 191.689 43.6048C195.525 40.2418 198.957 36.5806 199.987 31.3395C200.17 30.4131 199.703 29.3534 199.532 28.3572C199.513 28.8648 199.494 29.3724 199.475 29.8801C199.279 29.474 199.147 29.0044 198.862 28.6808C198.496 28.2684 197.996 27.9702 197.554 27.6275C197.15 35.3306 192.068 39.639 186.185 43.3573C185.989 43.4842 185.597 43.3065 185.3 43.2748C185.414 42.9829 185.458 42.6213 185.654 42.4182C187.095 40.9588 188.599 39.5629 190.027 38.0908C193.339 34.677 196.025 30.9397 195.987 25.8699C193.636 24.0996 192.492 19.9054 188.22 21.9803C187.348 22.4054 186.456 22.7798 185.572 23.1795C184.156 25.2481 182.74 27.3229 181.325 29.3978C181.198 29.5184 181.066 29.6389 180.939 29.7595C180.844 29.8737 180.75 29.9879 180.655 30.1021C179.694 31.1174 178.778 32.1834 177.729 33.0907C177.609 33.1923 176.73 32.4055 176.206 32.0374C177.128 30.8572 178.051 29.677 178.974 28.5032L179.024 28.4587C179.328 28.0844 179.631 27.71 179.934 27.342C180.661 26.1745 181.388 25.0006 182.115 23.8331C182.077 23.7887 182.039 23.7442 181.995 23.7062C182.039 23.7125 182.083 23.7252 182.127 23.7316C182.178 23.6173 182.229 23.4968 182.273 23.3826C181.192 22.1072 180.111 20.8318 179.037 19.5564C176.819 21.3521 174.594 23.1541 172.376 24.9498C171.946 25.6161 171.554 26.3077 171.055 26.9169C170.954 27.0438 170.259 26.9359 170.183 26.7709C170.038 26.46 169.974 25.8889 170.158 25.6795C171.908 23.6935 173.716 21.7645 175.504 19.8166L175.511 19.8102C175.719 19.5627 175.928 19.3089 176.136 19.0615C176.25 18.9473 176.364 18.833 176.484 18.7188C176.8 18.1922 177.116 17.6719 177.432 17.1516C177.179 16.5995 177.008 15.9904 176.667 15.4891C169.703 5.19084 156.052 2.94463 145.277 9.87361C143.608 10.9459 142.104 12.2721 140.48 13.4206C140.164 13.6427 139.64 13.5792 139.216 13.649C139.311 13.3 139.399 12.951 139.494 12.5957C139.349 12.583 139.21 12.564 139.064 12.5513C137.504 14.3026 135.974 16.0856 134.369 17.7924C133.794 18.4016 133.016 18.833 132.334 19.3407C132.511 18.4587 132.397 17.2975 132.922 16.7391C136.53 12.8622 140.278 9.10584 143.975 5.3114C138.54 4.10581 133.269 4.72129 128.245 7.01826C117.767 11.8152 112.692 20.8191 109.526 31.3268C108.989 33.1161 107.978 34.7595 107.181 36.4664C106.701 36.7837 106.227 37.1073 105.747 37.4245C104.198 39.0172 102.321 40.4004 101.152 42.2342C92.6458 55.5909 89.4417 70.3181 90.2506 86.0352C90.3011 87.0631 89.8967 88.1164 89.7071 89.1571L89.7134 89.1634Z" fill="#1797FE"/>
<path d="M200.973 86.473C198.041 86.0479 194.982 84.8994 192.201 85.3753C188.428 86.0225 184.801 87.7611 181.23 89.303C176.844 91.1939 172.635 93.4908 168.249 95.3754C159.825 99.0048 150.724 101.537 142.022 98.6876C132.877 95.6926 124.535 90.2675 115.738 86.1431C110.746 83.8017 105.696 81.1494 100.381 80.0707C95.6224 79.1062 90.6171 85.8004 91.3376 90.6672C91.4576 91.4794 91.009 92.3804 90.8257 93.2434C93.3283 100.115 96.1469 106.816 102.302 111.327C105.608 113.757 108.78 116.841 112.515 118.066C115.643 119.087 119.606 118.275 123.038 117.527C137.554 114.373 151.729 114.855 165.81 119.95C167.971 120.731 171.043 119.735 173.463 118.897C180.371 116.511 186.058 112.197 189.067 105.502C190.21 102.964 189.395 99.3411 188.877 96.3145C188.447 93.8335 185.521 91.5682 188.093 88.9159C190.855 86.0669 194.274 84.855 198.262 86.0416C199.083 86.2827 199.905 86.5428 200.726 86.7966C200.809 86.6888 200.897 86.5809 200.986 86.473H200.973Z" fill="#285ABC"/>
<path d="M193.724 59.9818C193.87 60.1023 194.009 60.2165 194.154 60.3307C195.007 60.0769 195.867 59.8295 196.72 59.5757C196.852 59.4805 196.979 59.379 197.112 59.2838C197.453 59.03 197.794 58.7698 198.135 58.516C198.698 58.0084 199.26 57.5071 199.823 56.9995C200.158 56.6759 200.493 56.3523 200.834 56.0287C201.498 55.0706 202.161 54.1188 202.825 53.1607C202.945 52.9386 203.065 52.7101 203.185 52.4817C203.273 52.2406 203.362 52.0058 203.457 51.7647C203.779 50.9081 204.101 50.0515 204.424 49.1949C204.487 48.7952 204.55 48.3954 204.613 47.9957C204.67 47.5896 204.727 47.1835 204.79 46.7837C204.79 45.4512 204.79 44.1251 204.79 42.7926C204.727 42.4944 204.664 42.1961 204.601 41.9043C204.531 41.5172 204.461 41.1238 204.398 40.7367C204.322 40.5591 204.247 40.375 204.177 40.1974C204.032 39.804 203.886 39.4106 203.735 39.0172C203.621 38.8459 203.507 38.6745 203.393 38.4969C203.33 38.37 203.267 38.2431 203.204 38.1162C203.071 37.9004 202.938 37.6847 202.799 37.4689C202.597 37.1898 202.395 36.9042 202.193 36.625C201.959 36.6631 201.725 36.6948 201.491 36.7329C201.415 36.8725 201.34 37.0121 201.264 37.1453C200.884 37.7037 200.499 38.2621 200.12 38.8268C200.025 38.9537 199.93 39.0743 199.842 39.2012C199.671 39.4867 199.494 39.7723 199.324 40.0578C199.172 40.2355 199.026 40.4131 198.875 40.5908C198.717 40.8192 198.552 41.054 198.388 41.2824C198.3 41.3903 198.211 41.4982 198.129 41.606C197.864 41.9296 197.605 42.2532 197.339 42.5832C197.029 42.9639 196.713 43.3383 196.404 43.719C195.886 44.2266 195.367 44.7342 194.843 45.2355C194.609 45.4385 194.375 45.6416 194.141 45.8446C193.686 46.2 193.231 46.5553 192.776 46.9106C192.65 47.0058 192.517 47.1073 192.391 47.2025C190.893 48.1606 189.401 49.1188 187.904 50.0769C187.006 54.9246 191.184 56.8345 193.509 59.8168C193.585 59.8739 193.655 59.931 193.731 59.9945L193.724 59.9818Z" fill="white"/>
<path d="M115.763 123.897C125.42 123.485 135.07 122.799 144.733 122.749C151.653 122.711 158.574 123.529 165.494 123.929C166.075 123.961 166.669 123.751 167.257 123.65C166.783 123.256 166.366 122.641 165.829 122.507C159.85 121.029 153.929 119.056 147.855 118.332C138.186 117.184 128.51 117.793 119.271 121.397C117.912 121.93 116.705 122.869 115.46 123.662C115.176 123.846 115.024 124.227 114.809 124.519C115.138 124.57 115.46 124.62 115.789 124.671C115.782 124.411 115.776 124.151 115.763 123.891V123.897Z" fill="#285ABC"/>
<path d="M205.074 96.2637C206.035 95.9337 207.862 95.5023 209.492 94.6901C211.666 93.5987 211.243 91.6444 209.776 90.5784C208.866 89.9185 207.078 90.4705 205.681 90.4832C204.834 90.4895 203.943 90.7053 203.16 90.4832C200.17 89.6647 197.244 88.1862 194.242 88.0276C192.757 87.9515 191.146 90.2104 189.648 91.4794C189.604 91.5175 190.135 92.6088 190.545 92.7421C194.04 93.8779 197.554 94.9502 201.099 95.9337C202.073 96.2066 203.141 96.1177 205.087 96.2637L205.074 96.2637Z" fill="#E45A19"/>
<path d="M89.7134 89.1634C89.903 88.1228 90.3075 87.0695 90.2569 86.0415C89.448 70.3181 92.6521 55.5972 101.159 42.2405C102.328 40.4068 104.205 39.0235 105.753 37.4309C105.557 37.3167 105.235 37.2405 105.178 37.0819C103.781 33.04 102.549 36.6694 101.967 37.3738C95.0536 45.7939 91.5209 55.7495 89.6565 66.3143C88.3167 73.8968 87.3561 81.5618 89.7071 89.1761L89.7134 89.1634Z" fill="#F1FBE7"/>
<path d="M139.501 12.583C139.406 12.932 139.317 13.281 139.222 13.6363C139.652 13.5665 140.17 13.6363 140.486 13.4079C142.111 12.2594 143.615 10.9333 145.283 9.86092C156.052 2.93194 169.709 5.17815 176.673 15.4764C177.008 15.9777 177.185 16.5868 177.438 17.1389C177.659 16.149 178.38 14.8863 178.013 14.2264C172.54 4.32789 157.619 0.260608 147.931 5.91419C146.636 6.68196 145.346 7.45608 144.051 8.22385L143.988 8.26827C142.49 9.70863 140.998 11.1553 139.501 12.5957V12.583Z" fill="#F1FBE7"/>
<path d="M107.188 36.4664C107.984 34.7532 108.995 33.1098 109.532 31.3268C112.698 20.8191 117.773 11.8089 128.251 7.01826C133.276 4.72129 138.546 4.10581 143.981 5.3114C144.594 4.92434 145.207 4.54363 145.82 4.16291C145.188 3.83296 144.588 3.41418 143.924 3.1921C137.605 1.12356 131.809 2.5893 126.343 5.95227C118.696 10.6604 112.976 17.0437 110.069 25.6542C108.881 29.1821 108.136 32.8623 107.194 36.4727L107.188 36.4664Z" fill="#F1FBE7"/>
<path d="M201.605 105.915C201.99 105.591 203.735 104.595 203.602 104.163C203.084 102.431 202.376 100.28 201.017 99.3919C198.59 97.8056 195.658 96.9807 192.896 95.9655C192.625 95.8639 191.613 96.6825 191.645 97.0061C192.188 102.603 195.544 105.826 201.605 105.921V105.915Z" fill="#E45A19"/>
<path d="M187.506 57.7229C189.515 60.7813 191.683 63.7508 193.497 66.9298C196.328 71.8981 198.919 76.9996 201.624 82.0441C201.795 82.3613 202.054 82.6342 202.275 82.926C202.433 82.7357 202.711 82.5517 202.736 82.3486C202.799 81.7649 202.768 81.1684 202.768 80.5783C202.705 80.3309 202.641 80.0898 202.572 79.8486C202.395 79.2458 202.212 78.643 202.035 78.0402C201.99 77.8689 201.94 77.6913 201.896 77.5199C201.845 77.3677 201.788 77.2154 201.738 77.0631C201.238 75.8321 200.733 74.6075 200.234 73.3765C200.17 73.275 200.113 73.1735 200.05 73.0783C199.456 72.1329 198.862 71.1874 198.262 70.242L198.135 70.1976C198.135 70.1976 198.116 70.0643 198.123 70.0643C197.605 69.3092 197.08 68.5605 196.562 67.8054C196.378 67.558 196.189 67.3168 196.006 67.0694C195.841 66.8663 195.677 66.6569 195.506 66.4539C195.323 66.2128 195.14 65.9716 194.95 65.7369C194.887 65.6417 194.83 65.5402 194.767 65.445C194.666 65.4323 194.622 65.3752 194.647 65.2737C194.514 65.1214 194.381 64.9754 194.249 64.8232C193.56 63.9602 192.877 63.0973 192.188 62.2407C192.119 62.1645 192.049 62.0884 191.98 62.0059C190.602 60.5782 189.225 59.1569 187.847 57.7292C187.733 57.7292 187.613 57.7292 187.499 57.7292L187.506 57.7229Z" fill="#F1FBE7"/>
<path d="M185.572 23.1795C186.456 22.7798 187.348 22.4054 188.22 21.9803C192.492 19.9054 193.636 24.0996 195.993 25.8699C196.511 26.4536 197.036 27.0438 197.554 27.6275C197.996 27.9765 198.496 28.2684 198.862 28.6808C199.153 29.0044 199.279 29.474 199.475 29.8801C199.494 29.3724 199.513 28.8648 199.532 28.3572C196.713 25.5653 194.059 22.5894 191.038 20.0386C188.068 17.5323 187.373 18.0336 185.572 23.1732V23.1795Z" fill="#F1FBE7"/>
<path d="M186.374 46.6695C183.347 47.3675 180.314 48.0654 177.286 48.7634C177.786 49.969 177.982 51.8282 178.847 52.2343C180.541 53.0211 183.202 51.771 183.796 54.8485C183.821 54.969 184.643 54.931 185.091 54.969C186.488 51.2507 185.951 50.6162 181.805 50.6353C180.472 50.6416 179.138 50.2292 177.811 50.0071C178.999 49.5883 180.206 49.2076 181.382 48.7444C183.056 48.0845 184.712 47.3675 186.381 46.6695H186.374Z" fill="#285ABC"/>
<path d="M201.889 77.5136C201.934 77.6849 201.984 77.8626 202.028 78.0339C202.205 78.6367 202.389 79.2395 202.566 79.8359C202.629 80.0771 202.692 80.3245 202.761 80.5656C203.046 81.7141 203.444 82.8499 203.589 84.0174C203.722 85.1151 203.589 86.2446 203.577 87.355C202.705 87.0568 201.839 86.7586 200.967 86.4603C200.884 86.5682 200.796 86.6761 200.714 86.7903C201.813 87.2091 202.907 87.6279 204.006 88.0466C204.082 86.7332 204.455 85.3563 204.164 84.1253C203.425 80.9844 202.427 77.9007 201.441 74.8169C201.264 74.2585 200.644 73.8397 200.227 73.3638C200.726 74.5948 201.232 75.8194 201.731 77.0504C201.782 77.2027 201.839 77.355 201.889 77.5072V77.5136Z" fill="#14611C"/>
<path d="M178.968 28.4905C178.045 29.6707 177.122 30.8509 176.199 32.0247C176.724 32.3991 177.609 33.1859 177.723 33.0781C178.778 32.1707 179.694 31.111 180.649 30.0895C179.587 30.724 178.525 31.3522 177.463 31.9867C177.963 30.8192 178.462 29.6516 178.961 28.4841L178.968 28.4905Z" fill="#285ABC"/>
<path d="M175.511 19.7975C173.722 21.7455 171.915 23.6744 170.164 25.6605C169.981 25.8699 170.038 26.4473 170.189 26.7519C170.265 26.9169 170.96 27.0247 171.061 26.8978C171.561 26.2887 171.953 25.5907 172.382 24.9308C173.425 23.2176 174.468 21.5107 175.517 19.7975H175.511Z" fill="#285ABC"/>
<path d="M183.214 21.5742C183.474 20.4765 183.733 19.3787 183.992 18.281C182.93 18.1668 181.862 18.0462 180.8 17.932C180.63 18.097 180.465 18.262 180.295 18.427C180.257 18.4904 180.206 18.5412 180.13 18.5665C181.16 19.5691 182.184 20.5716 183.214 21.5742Z" fill="#F1FBE7"/>
<path d="M183.214 21.5742C182.184 20.5716 181.16 19.5691 180.13 18.5665C179.764 18.8902 179.404 19.2138 179.037 19.5374C180.118 20.8128 181.192 22.0881 182.273 23.3635C182.589 22.7671 182.898 22.1706 183.214 21.5678V21.5742Z" fill="#285ABC"/>
<path d="M139.501 12.583C140.998 11.1426 142.49 9.69594 143.988 8.25558C142.351 9.68325 140.714 11.1109 139.071 12.5386C139.216 12.5513 139.355 12.5703 139.501 12.583Z" fill="#285ABC"/>
<path d="M191.089 44.0172C189.623 44.8675 188.156 45.7114 186.69 46.5616C188.156 45.7114 189.623 44.8611 191.089 44.0172Z" fill="#285ABC"/>
<path d="M198.262 70.242C198.856 71.1874 199.45 72.1329 200.05 73.0783C199.456 72.1329 198.862 71.1874 198.262 70.242Z" fill="#14611C"/>
<path d="M196.713 59.5757C195.86 59.8295 195.001 60.0769 194.148 60.3307C195.007 60.0769 195.86 59.8295 196.713 59.5757Z" fill="#14611C"/>
<path d="M196.562 67.8054C197.086 68.5605 197.605 69.3156 198.123 70.0643C197.598 69.3092 197.08 68.5605 196.562 67.8054Z" fill="#14611C"/>
<path d="M194.83 45.2165C195.348 44.7088 195.873 44.2012 196.391 43.6999C195.873 44.2076 195.348 44.7152 194.83 45.2165Z" fill="#14611C"/>
<path d="M200.113 38.8205C200.493 38.2621 200.878 37.7037 201.257 37.139C200.878 37.6974 200.493 38.2557 200.113 38.8205Z" fill="#14611C"/>
<path d="M204.784 46.7837C204.727 47.1898 204.67 47.5959 204.607 47.9957C204.664 47.5896 204.721 47.1835 204.784 46.7837Z" fill="#14611C"/>
<path d="M197.333 42.5642C197.598 42.2405 197.857 41.9169 198.123 41.587C197.857 41.9106 197.598 42.2342 197.333 42.5642Z" fill="#14611C"/>
<path d="M198.129 58.516C197.788 58.7698 197.447 59.03 197.105 59.2838C197.447 59.0236 197.788 58.7698 198.129 58.516Z" fill="#14611C"/>
<path d="M201.485 36.7265C201.719 36.6885 201.953 36.6568 202.186 36.6187C202.041 36.4347 201.896 36.2507 201.75 36.073C201.662 36.2887 201.573 36.5108 201.485 36.7265Z" fill="#14611C"/>
<path d="M204.594 41.9043C204.657 42.2025 204.721 42.5007 204.784 42.7926C204.721 42.4944 204.657 42.1961 204.594 41.9043Z" fill="#14611C"/>
<path d="M199.311 40.0451C199.482 39.7596 199.658 39.474 199.829 39.1885C199.652 39.474 199.482 39.7596 199.311 40.0451Z" fill="#14611C"/>
<path d="M195.506 66.4539C195.671 66.6633 195.835 66.8663 196.006 67.0694C195.841 66.86 195.677 66.6569 195.506 66.4539Z" fill="#14611C"/>
<path d="M204.164 40.191C204.24 40.3687 204.316 40.5527 204.386 40.7304C204.31 40.5464 204.234 40.3687 204.164 40.191Z" fill="#14611C"/>
<path d="M203.381 38.4905C203.495 38.6618 203.608 38.8332 203.722 39.0108C203.773 38.8966 203.823 38.7824 203.88 38.6682C203.716 38.6111 203.545 38.554 203.381 38.4969V38.4905Z" fill="#14611C"/>
<path d="M202.793 37.4689C202.926 37.6847 203.058 37.9004 203.198 38.1162C203.065 37.9004 202.932 37.6847 202.793 37.4689Z" fill="#14611C"/>
<path d="M194.255 64.8168C194.388 64.9691 194.52 65.1214 194.653 65.2673C194.52 65.115 194.388 64.9628 194.255 64.8168Z" fill="#14611C"/>
<path d="M187.506 57.7229C187.619 57.7229 187.739 57.7229 187.853 57.7229C187.752 57.6023 187.645 57.4818 187.543 57.3612L187.48 57.4373C187.468 57.5389 187.48 57.6404 187.531 57.7356L187.506 57.7102V57.7229Z" fill="#1797FE"/>
<path d="M182.127 23.7125C182.083 23.7062 182.039 23.6935 181.995 23.6871C182.033 23.7316 182.071 23.776 182.115 23.814L182.127 23.7125Z" fill="#285ABC"/>
<path d="M176.49 18.7061C176.376 18.8204 176.263 18.9346 176.143 19.0488C176.256 18.9346 176.37 18.8204 176.49 18.7061Z" fill="#285ABC"/>
<path d="M193.724 59.9818C193.648 59.9247 193.573 59.8612 193.503 59.8041C193.579 59.8612 193.655 59.9247 193.724 59.9818Z" fill="#14611C"/>
<path d="M194.773 65.4386C194.836 65.5338 194.893 65.6353 194.957 65.7305C194.893 65.629 194.836 65.5338 194.773 65.4386Z" fill="#14611C"/>
<path d="M197.548 27.6275C197.029 27.0438 196.505 26.46 195.987 25.8699C196.031 30.9397 193.345 34.677 190.027 38.0908C188.599 39.5629 187.095 40.9588 185.654 42.4182C185.452 42.6213 185.414 42.9829 185.3 43.2748C185.597 43.3065 185.982 43.4842 186.185 43.3573C192.062 39.639 197.15 35.3306 197.554 27.6275H197.548Z" fill="#285ABC"/>
<path d="M187.524 57.7419C187.48 57.6467 187.461 57.5452 187.474 57.4437C187.436 57.5262 187.404 57.6087 187.366 57.6911C187.417 57.7102 187.468 57.7229 187.518 57.7419L187.524 57.7419Z" fill="#F1FBE7"/>
<path d="M202.572 79.8423C202.395 79.2395 202.212 78.6367 202.035 78.0402C202.212 78.643 202.395 79.2458 202.572 79.8423Z" fill="#1797FE"/>
<path d="M319.967 141.981C318.934 140.675 317.984 139.306 316.861 138.077C311.746 132.491 305.36 128.991 298.141 126.879C297.942 126.822 297.781 126.636 297.499 126.431C299.88 123.731 302.209 121.082 304.545 118.439C304.661 118.311 304.866 118.228 304.918 118.081C306.233 114.235 309.635 111.81 311.579 108.387C313.344 105.283 312.799 101.981 312.041 98.8778C310.899 94.2002 309.917 89.5226 309.423 84.7362C309.282 83.3924 309.41 82.503 310.719 81.556C317.888 76.3408 320.423 65.6227 315.962 58.763C314.23 56.0947 312.734 53.4136 311.605 50.4509C310.796 48.3392 310.071 45.9396 309.827 43.6424C309.262 38.2737 307.125 33.8649 301.94 31.3757C301.176 31.011 300.502 30.2367 300.059 29.4944C298.243 26.4358 296.478 23.3067 293.417 21.323C291.543 20.1136 289.445 19.2114 287.378 18.3283C283.014 16.4599 278.547 14.8217 274.222 12.8701C266.861 9.54264 259.448 8.42283 251.766 11.6543C245.779 14.1755 239.752 16.6134 233.816 19.2498C230.864 20.5616 227.931 22.0077 226.474 25.2712C226.192 25.8983 225.171 26.1862 224.498 26.6405C220.089 29.5904 216.918 33.4426 215.667 38.6897C215.571 39.0864 215.378 39.5087 215.455 39.8799C215.949 42.4266 214.672 44.4551 213.6 46.5667C211.848 50.0093 211.489 53.6311 212.278 57.4065C212.4 58.0016 212.304 58.8014 211.983 59.3005C210.263 61.9305 210.327 64.7588 210.777 67.6895C210.886 68.387 210.809 69.1997 210.546 69.8523C207.966 76.2129 208.396 82.631 210.603 88.8955C211.309 90.8984 213.1 92.6069 214.653 94.2002C215.641 95.2176 216.27 96.0111 216.174 97.5596C215.66 105.328 218.471 112.072 223.079 118.139C224.145 119.54 224.222 120.423 223.034 121.805C221.083 124.089 218.478 125.165 215.866 126.272C213.247 127.372 210.597 128.415 207.914 129.362C202.838 131.147 198.673 134.232 195.265 138.282C194.553 139.133 194.745 140.739 194.521 142H195.22C197.896 139.428 200.579 136.855 203.409 134.129C202.966 137.022 202.588 139.511 202.209 142H204.654C205.013 140.029 205.379 138.052 205.739 136.081C205.822 135.844 205.912 135.601 205.995 135.364C206.079 135.128 206.162 134.884 206.246 134.648C206.785 133.873 207.163 132.664 207.895 132.389C211.778 130.943 215.75 129.727 219.691 128.428C219.922 128.358 220.159 128.294 220.39 128.223C220.621 128.172 220.852 128.127 221.09 128.076C225.287 127.308 229.478 126.54 233.675 125.772C234.593 125.632 235.51 125.446 236.428 125.363C246.934 124.429 257.446 123.91 267.977 125.069C270.859 125.382 273.785 125.35 276.693 125.478C276.872 125.504 277.052 125.529 277.225 125.555C279.362 125.792 281.499 126.028 283.637 126.272C285.985 126.732 288.334 127.193 290.683 127.647H290.696C291.505 127.865 292.313 128.089 293.115 128.306C293.468 128.409 293.821 128.505 294.181 128.607C297.293 129.535 300.412 130.463 303.409 131.359C301.831 133.726 300.464 135.787 299.09 137.841C298.936 138.18 298.776 138.519 298.622 138.865C298.519 139.095 298.416 139.332 298.307 139.562C298.076 140.375 297.852 141.187 297.621 142H300.066C300.964 138.781 302.466 135.895 304.898 133.56C305.251 133.221 306.028 132.856 306.362 133.016C310.591 135.038 314.101 137.898 316.489 141.994H319.986L319.967 141.981ZM311.207 53.196C310.841 52.972 310.469 52.7481 310.103 52.5177C308.088 51.6027 306.092 50.6684 304.064 49.7854C298.975 47.565 293.622 47.1298 288.155 47.5266C287.718 47.5586 287.211 47.4818 286.833 47.277C279.555 43.4313 271.693 43.0601 263.716 43.3545C261.393 43.4377 258.986 44.0712 256.772 43.6616C251.766 42.7338 246.805 42.8234 241.832 43.4569C237.352 44.0264 232.866 44.967 229.349 47.9425C227.321 49.6574 225.281 50.1181 222.855 49.9262C220.095 51.6027 217.335 53.2856 214.505 55.0069C214.249 50.0541 216.033 45.7669 219.485 42.1643C220.268 41.3452 221.475 40.9293 222.489 40.3278C225.351 39.0416 228.22 37.7554 231.082 36.4756C231.076 36.3605 231.069 36.2453 231.063 36.1301H228.765C224.947 37.5763 221.135 39.0224 217.406 40.4366C217.489 36.0021 223.124 28.9697 228.38 26.9989C233.29 23.761 238.963 24.3241 244.457 24.0298C244.482 23.8826 244.508 23.7354 244.527 23.5882C243.943 23.3195 243.353 23.0507 242.769 22.7756C238.52 22.8844 234.272 22.9931 230.017 23.0955C229.946 23.0187 229.876 22.9484 229.799 22.8716C231.294 22.1485 232.796 21.419 234.291 20.6959C235.53 20.1328 236.717 19.3394 238.02 19.0578C242.512 18.0916 246.581 16.1335 250.63 14.0923C258.948 9.90098 267.002 11.0144 275.043 15.0265C278.663 16.831 282.392 18.6163 286.274 19.6593C291.896 21.1631 295.766 24.5993 298.352 29.424C299.315 31.2221 300.47 32.2012 302.094 33.065C306.092 35.1831 309.153 41.7291 308.139 45.9716C307.478 45.5813 306.862 45.1398 306.182 44.839C303.923 43.8536 301.632 42.9193 299.36 41.9659C299.36 42.2091 299.36 42.4522 299.36 42.6954C299.456 42.7594 299.559 42.7914 299.674 42.7978C299.796 42.8874 299.912 42.9705 300.034 43.0601C300.149 43.0985 300.258 43.1369 300.374 43.1753C300.489 43.2521 300.605 43.3289 300.72 43.4057C300.785 43.4505 300.83 43.508 300.855 43.5784C301.093 43.7192 301.324 43.8536 301.561 43.9944C301.863 44.1607 302.164 44.3271 302.466 44.4935C302.755 44.6726 303.044 44.8518 303.332 45.031C303.416 45.0438 303.486 45.0822 303.538 45.1526C306.278 46.3684 308.678 48.0065 310.225 50.6684V50.6876C310.591 51.4875 310.95 52.2873 311.303 53.0872C311.335 53.1576 311.374 53.228 311.406 53.3048C311.342 53.2664 311.278 53.2216 311.213 53.1832L311.207 53.196ZM308.614 71.1129C308.345 71.3177 308.094 71.5673 307.793 71.7208C302.363 74.5044 297.473 72.2007 292.39 70.3067C293.321 69.2189 295.336 69.7564 295.143 67.8111L292.005 68.163C291.8 68.2526 291.588 68.419 291.383 68.419C286.46 68.3102 281.532 68.3358 276.622 67.9967C274.106 67.8239 271.635 66.992 269.145 66.4609C268.305 66.2818 267.855 66.0002 268.876 65.3667C268.741 63.4982 267.573 64.4837 266.906 64.7652C262.182 66.7745 257.241 67.9199 252.164 68.5598C245.862 69.7308 239.688 69.4748 233.694 66.9728C232.898 66.6401 231.993 66.5505 231.14 66.3457C232.629 69.2253 235.555 69.4492 238.032 70.7418C235.234 71.3945 232.449 72.0088 229.657 72.0344C226.814 72.06 223.965 71.5033 221.115 71.2089C221.026 71.3113 220.929 71.4201 220.84 71.5225C222.219 72.5271 223.606 73.5317 225.274 74.7539C223.317 76.5072 221.462 78.2349 219.524 79.8602C218.305 80.8841 217.271 81.8375 217.066 83.6164C216.796 86.016 216.277 86.3103 213.761 86.6559C213.555 86.6815 213.363 86.8223 212.83 87.0526C214.088 87.8461 215.468 88.2684 216.039 89.1898C216.617 90.1177 216.392 91.5383 216.546 93.0036C210.892 89.5482 208.55 78.1005 212.124 72.1624C212.805 73.6277 213.421 74.9587 214.037 76.2961C214.306 75.5794 214.255 74.9715 214.088 74.3956C213.466 72.2391 212.715 70.1147 212.176 67.9327C211.579 65.5075 211.56 63.0567 213.106 60.9131C214.274 59.2878 215.5 57.688 216.861 56.2291C218.138 54.8661 219.633 53.7079 221.032 52.4537C226.429 50.3549 231.3 51.833 236.088 54.8597C235.376 50.7708 231.673 51.3211 228.772 49.8814C230.825 48.7935 232.43 47.6929 234.195 47.0594C242.474 44.0648 250.861 43.4697 259.333 46.362C260.449 46.7459 261.637 46.9315 262.792 47.2066C262.824 47.0594 262.856 46.9059 262.882 46.7587C262.259 46.3108 261.63 45.8692 260.79 45.2677C261.361 45.0822 261.701 44.8838 262.047 44.8774C272.38 44.6343 282.475 45.3125 290.889 52.4089C291.421 52.8632 292.204 53.0232 293.244 53.4839C292.923 52.5881 292.795 52.217 292.66 51.8458C291.896 51.0907 291.126 50.3421 290.343 49.5678C290.574 49.4014 290.658 49.2863 290.735 49.2863C291.774 49.3311 292.82 49.4014 293.86 49.4462C299.732 49.7022 305.084 51.705 310.116 54.5526C313.158 56.2739 314.499 59.4541 313.915 62.6216C313.421 66.2498 311.483 68.9821 308.595 71.1193L308.614 71.1129ZM228.611 75.2722C231.384 74.4724 234.163 73.6725 236.935 72.8726C239.983 71.9896 242.981 71.2089 246.234 70.9978C251.311 70.665 256.323 69.4556 261.367 68.6686C263.357 68.3614 265.545 67.5743 267.342 68.0799C274.26 70.0187 281.243 70.7738 288.398 70.5242C289.534 70.4858 290.773 70.8698 291.826 71.3625C295.381 73.0326 298.994 74.4084 302.992 74.4276C305.386 74.4404 306.329 75.1954 306.695 77.5566C307.125 80.353 307.42 83.1749 307.96 85.9456C309.891 95.8255 308.447 105.283 304.533 114.453C301.548 118.196 298.571 121.946 295.561 125.676C295.419 125.849 295.002 125.977 294.803 125.9C292.506 125.005 289.785 124.563 288.033 123.034C285.068 120.442 281.929 118.375 278.207 117.326C273.882 116.104 269.466 115.201 265.096 114.158C263.138 114.075 261.175 113.992 259.217 113.909C258.819 113.96 258.421 114.037 258.024 114.062C254.025 114.299 249.931 114.069 246.048 114.862C240.048 116.084 234.188 118.011 228.265 119.629C227.411 119.866 226.609 120.449 225.788 119.367C220.185 112.002 216.854 103.971 218.08 94.4945C218.279 92.9652 218.407 91.2887 217.996 89.8425C217.31 87.4046 218.24 85.2929 218.767 83.0789C218.882 82.599 219.428 82.1766 219.845 81.8119C221.712 80.1738 223.554 78.4973 225.512 76.9679C226.423 76.2513 227.572 75.8353 228.611 75.2786V75.2722ZM225.723 124.979C225.659 124.723 225.601 124.461 225.537 124.205C227.251 123.405 228.939 122.535 230.691 121.831C240.972 117.703 251.67 116.424 262.689 117C269.543 117.358 276.025 118.881 282.083 122.112C282.937 122.567 283.675 123.226 284.471 123.795C283.604 124.16 282.976 124.198 282.359 124.153C274.414 123.565 266.482 122.816 258.531 122.413C248.917 121.927 239.335 122.183 229.94 124.672C228.598 125.024 227.135 124.896 225.723 124.992V124.979ZM310.199 78.7532C308.422 75.5666 309.404 73.1414 311.682 70.5754C313.569 68.4446 314.705 65.6611 316.039 63.3895C317.573 69.1677 314.672 75.3042 310.199 78.7596V78.7532ZM308.197 109.897C308.941 106.115 309.654 102.493 310.366 98.8714C311.278 102.813 311.81 106.672 308.197 109.897Z" fill="#0D0A0A"/>
<path d="M276.667 125.459C273.76 125.331 270.84 125.363 267.952 125.049C257.414 123.891 246.908 124.416 236.402 125.344C235.478 125.427 234.567 125.612 233.649 125.753C233.649 126.214 233.649 126.681 233.649 127.142C233.643 129.394 233.47 129.522 231.486 128.345C230.421 127.711 229.67 127.858 228.675 128.562C227.982 129.061 226.898 129.349 226.057 129.241C224.376 129.023 222.733 128.473 221.071 128.057C220.839 128.108 220.608 128.153 220.371 128.204C220.14 128.274 219.903 128.338 219.671 128.409C215.731 129.701 211.758 130.917 207.876 132.37C207.144 132.645 206.772 133.848 206.226 134.628C207.561 134.142 208.903 133.662 210.52 133.074C210.52 135.025 210.546 136.599 210.494 138.167C210.488 138.468 210.257 138.903 210 139.044C208.672 139.76 208.704 140.797 209.179 141.987H297.601C297.832 141.175 298.057 140.362 298.288 139.549C298.108 139.44 297.929 139.332 297.755 139.217C298.038 139.095 298.32 138.973 298.603 138.845C298.757 138.506 298.917 138.167 299.071 137.822C298.596 137.386 298.121 136.951 297.646 136.516C297.422 136.292 297.191 136.062 296.966 135.838C296.286 137.054 295.606 138.263 294.925 139.479C294.052 138.897 293.533 138.769 293.122 138.487C292.487 138.058 291.928 137.527 291.338 137.034C291.909 136.702 292.493 136.388 293.051 136.036C293.411 135.806 293.931 135.563 294.001 135.243C294.065 134.936 293.648 134.52 293.436 134.155C293.199 133.739 292.955 133.33 292.711 132.92C291.376 133.534 290.041 134.149 288.848 134.699C288.912 133.79 288.982 132.773 289.072 131.525C289.721 131.525 290.394 131.551 291.068 131.525C292.076 131.474 292.801 131.711 292.718 132.926C293.52 132.754 294.322 132.581 295.124 132.414L295.272 131.941C294.405 131.301 293.539 130.661 292.718 130.06C293.302 129.471 293.738 129.029 294.174 128.594C293.821 128.492 293.468 128.396 293.109 128.294C292.166 128.562 291.184 128.953 290.69 127.628L290.677 127.634C290.536 127.935 290.279 128.23 290.266 128.53C290.234 129.618 289.669 130.117 288.63 130.136C287.994 130.149 287.32 129.964 286.723 130.104C285.985 130.277 285.247 130.623 284.612 131.045C284.233 131.295 284.047 131.826 283.913 132.024C280.53 130.61 277.379 129.292 273.83 127.814C275.364 127.494 276.327 127.123 277.283 127.123C279.439 127.123 281.653 126.432 283.726 127.718C284.869 128.422 285.966 128.198 286.473 127.603C285.568 127.174 284.593 126.713 283.624 126.252C281.487 126.016 279.35 125.779 277.212 125.536C277.033 125.51 276.853 125.484 276.68 125.459H276.667Z" fill="#F2FDE8"/>
<path d="M316.469 141.981C314.076 137.886 310.572 135.019 306.342 133.003C306.009 132.843 305.232 133.208 304.879 133.547C302.447 135.876 300.945 138.769 300.047 141.987H316.469V141.981Z" fill="#EDF7E3"/>
<path d="M209.185 141.981C208.71 140.797 208.684 139.754 210.006 139.037C210.263 138.897 210.494 138.468 210.501 138.161C210.552 136.593 210.526 135.019 210.526 133.067C208.909 133.656 207.568 134.136 206.233 134.622C206.149 134.859 206.066 135.102 205.983 135.339C206.175 135.48 206.374 135.614 206.567 135.755C206.284 135.857 206.002 135.959 205.726 136.055C205.366 138.026 205.001 140.004 204.641 141.974H209.185V141.981Z" fill="#EDF7E3"/>
<path d="M202.196 141.981C202.575 139.492 202.96 137.002 203.396 134.11C200.56 136.836 197.883 139.408 195.207 141.981H202.196Z" fill="#EDF7E3"/>
<path d="M304.533 114.446C308.447 105.277 309.891 95.8191 307.96 85.9392C307.42 83.1685 307.125 80.3466 306.695 77.5502C306.329 75.189 305.386 74.434 302.992 74.4212C298.994 74.402 295.381 73.0262 291.826 71.3561C290.779 70.8634 289.534 70.473 288.398 70.5178C281.249 70.7674 274.26 70.0123 267.342 68.0735C265.545 67.5679 263.357 68.355 261.367 68.6622C256.316 69.4492 251.304 70.6586 246.234 70.9914C242.974 71.2089 239.977 71.9832 236.935 72.8662C234.163 73.6725 231.384 74.466 228.611 75.2658C228.566 76.0017 228.611 76.7632 228.464 77.4734C227.296 83.0149 225.794 88.5244 226.32 94.2706C226.545 96.7662 226.211 99.5369 228.246 101.463C230.376 103.485 232.558 105.565 235.055 107.068C241.119 110.722 247.935 112.188 254.892 113.077C256.342 113.263 257.773 113.608 259.217 113.883C261.175 113.966 263.138 114.05 265.096 114.133C266.155 113.87 267.201 113.525 268.273 113.359C274.703 112.341 280.8 109.564 287.481 109.839C291.107 109.993 294.765 109.737 298.365 110.089C300.797 110.325 303.076 111.413 303.981 114.107C304.032 114.261 304.346 114.325 304.539 114.434L304.533 114.446Z" fill="#FBBD3A"/>
<path d="M300.374 43.1945C300.258 43.1561 300.149 43.1177 300.034 43.0793C299.912 42.9897 299.796 42.9065 299.674 42.817C299.559 42.817 299.456 42.7786 299.36 42.7146C298.333 42.3307 297.313 41.9467 296.286 41.5692C296.376 41.3452 296.466 41.1213 296.562 40.8909C297.492 41.2556 298.429 41.6204 299.36 41.9787C301.638 42.9321 303.923 43.8664 306.182 44.8518C306.862 45.1462 307.478 45.5941 308.139 45.9844C309.153 41.742 306.086 35.2023 302.094 33.0778C300.47 32.214 299.315 31.2349 298.352 29.4368C295.766 24.6121 291.896 21.1759 286.274 19.6721C282.392 18.6291 278.663 16.8502 275.043 15.0393C267.002 11.0208 258.948 9.91378 250.63 14.1051C246.581 16.1463 242.512 18.1044 238.02 19.0706C236.717 19.3522 235.53 20.152 234.291 20.7087C234.663 20.9647 235.01 21.3934 235.408 21.451C237.493 21.7454 239.598 21.9245 241.684 22.2061C242.063 22.2573 242.403 22.59 242.762 22.7884C243.346 23.0571 243.937 23.3259 244.521 23.601C244.495 23.7482 244.469 23.8954 244.45 24.0426C238.95 24.3369 233.283 23.7738 228.374 27.0117C228.136 27.4532 227.95 27.9267 227.661 28.3298C226.025 30.6334 224.536 32.9882 224.337 36.1045C225.127 36.0661 225.8 36.0085 226.481 36.0149C227.244 36.0213 228.002 36.0917 228.765 36.1365C229.529 36.1365 230.293 36.1365 231.063 36.1365C231.069 36.2517 231.076 36.3669 231.082 36.482C228.22 37.7682 225.351 39.0544 222.489 40.3342C220.865 43.5976 220.082 46.8355 222.855 49.9326C225.281 50.1245 227.321 49.6574 229.349 47.9489C232.866 44.9734 237.352 44.0328 241.832 43.4633C246.805 42.8298 251.766 42.7402 256.772 43.668C258.993 44.0775 261.393 43.4441 263.716 43.3609C271.693 43.0665 279.561 43.4377 286.833 47.2834C287.211 47.4882 287.718 47.565 288.155 47.533C293.622 47.1298 298.975 47.565 304.064 49.7918C306.086 50.6748 308.088 51.6091 310.103 52.5241C310.148 51.9162 310.187 51.3083 310.231 50.7068L310.225 50.6876C308.71 49.4782 307.183 48.2816 305.681 47.0594C304.943 46.4579 304.25 45.8053 303.538 45.1718C303.486 45.1014 303.416 45.063 303.332 45.0502C303.044 44.871 302.755 44.6918 302.466 44.5127C302.164 44.3463 301.863 44.1799 301.561 44.0136C301.324 43.8728 301.093 43.7384 300.855 43.5976C300.83 43.5272 300.785 43.4697 300.72 43.4249C300.605 43.3481 300.489 43.2713 300.374 43.1945ZM294.11 28.2594C293.481 29.4752 292.718 29.4496 291.633 28.9825C285.17 26.2118 278.483 24.3433 271.392 24.2153C271.026 24.2089 270.666 24.0234 270.243 23.9082C272.418 21.3166 289.99 24.5929 294.11 28.2658V28.2594Z" fill="#ED5D7F"/>
<path d="M252.177 68.547C257.253 67.9135 262.189 66.7617 266.918 64.7524C267.586 64.4709 268.76 63.4854 268.889 65.3539C269.704 65.3795 270.519 65.3347 271.321 65.4371C276.526 66.1026 281.731 66.7937 286.929 67.4848C288.623 67.7087 290.311 67.9327 292.005 68.163C293.051 68.0479 294.097 67.9263 295.143 67.8111C296.01 67.7855 297.088 67.408 297.704 67.7855C301.073 69.8524 304.648 71.0809 308.614 71.1129C311.509 68.9757 313.447 66.2434 313.934 62.6152C313.357 62.3272 312.644 62.1673 312.234 61.7193C310.771 60.1196 309.551 58.2767 307.985 56.7986C304.141 53.164 299.225 51.7882 294.194 50.8156C293.77 50.7324 293.18 51.4747 292.673 51.833C292.807 52.2042 292.936 52.5753 293.257 53.4711C292.217 53.0104 291.434 52.8441 290.901 52.3961C282.481 45.2997 272.393 44.6215 262.06 44.8646C261.714 44.871 261.367 45.0758 260.802 45.2549C261.643 45.8564 262.266 46.298 262.895 46.7459C262.863 46.8931 262.83 47.0466 262.805 47.1938C261.65 46.9187 260.469 46.7267 259.346 46.3492C250.874 43.4633 242.493 44.052 234.208 47.0466C232.443 47.6865 230.838 48.7871 228.785 49.8686C231.685 51.3083 235.388 50.758 236.101 54.8469C231.313 51.8202 226.442 50.3421 221.045 52.4409C221.385 53.0744 221.616 53.8103 222.085 54.3222C225.248 57.8096 228.823 60.8363 232.988 63.0503C238.418 65.9362 243.956 68.5918 250.393 68.1822C250.977 68.1438 251.58 68.4126 252.177 68.5406V68.547Z" fill="#EE5D80"/>
<path d="M259.217 113.896C257.78 113.621 256.349 113.275 254.892 113.09C247.935 112.194 241.113 110.735 235.055 107.081C232.558 105.577 230.376 103.498 228.245 101.476C226.211 99.5497 226.545 96.7726 226.32 94.2834C225.794 88.5372 227.296 83.0277 228.464 77.4862C228.611 76.7696 228.566 76.0145 228.611 75.2786C227.572 75.8289 226.423 76.2513 225.512 76.9679C223.554 78.4973 221.712 80.1738 219.845 81.8119C219.428 82.1766 218.882 82.599 218.767 83.0789C218.24 85.2865 217.31 87.4046 217.996 89.8425C218.407 91.2887 218.279 92.9652 218.08 94.4945C216.848 103.971 220.178 112.002 225.788 119.367C226.609 120.442 227.411 119.86 228.265 119.629C234.182 118.004 240.041 116.084 246.048 114.862C249.931 114.069 254.025 114.299 258.024 114.062C258.421 114.037 258.819 113.96 259.217 113.909V113.896Z" fill="#A57F4B"/>
<path d="M252.177 68.547C251.58 68.419 250.977 68.1502 250.393 68.1886C243.956 68.5982 238.418 65.9426 232.988 63.0567C228.823 60.8427 225.248 57.816 222.085 54.3286C221.616 53.8103 221.385 53.0808 221.045 52.4473C219.646 53.6951 218.15 54.8533 216.873 56.2227C215.506 57.6816 214.287 59.2878 213.119 60.9067C211.579 63.0503 211.592 65.4947 212.188 67.9263C212.728 70.1019 213.478 72.2327 214.101 74.3892C214.268 74.9651 214.319 75.573 214.05 76.2896C213.433 74.9523 212.811 73.6213 212.137 72.156C208.569 78.0877 210.911 89.5354 216.559 92.9972C216.405 91.5318 216.629 90.1113 216.052 89.1835C215.481 88.262 214.101 87.8397 212.843 87.0462C213.376 86.8158 213.568 86.6815 213.774 86.6495C216.289 86.3039 216.809 86.0096 217.079 83.61C217.278 81.8311 218.311 80.8777 219.537 79.8538C221.475 78.2285 223.323 76.5008 225.287 74.7475C223.612 73.5317 222.232 72.5271 220.852 71.5161C220.942 71.4137 221.038 71.3049 221.128 71.2025C223.978 71.5033 226.827 72.0536 229.67 72.028C232.462 72.0024 235.247 71.3881 238.045 70.7354C235.568 69.4428 232.642 69.2189 231.153 66.3394C232.006 66.5441 232.911 66.6337 233.707 66.9664C239.701 69.4748 245.875 69.7308 252.177 68.5534V68.547Z" fill="#AE455F"/>
<path d="M304.533 114.446C304.34 114.338 304.026 114.274 303.974 114.12C303.076 111.426 300.791 110.345 298.359 110.101C294.758 109.75 291.1 110.005 287.474 109.852C280.794 109.57 274.697 112.354 268.266 113.371C267.194 113.538 266.148 113.883 265.089 114.146C269.466 115.189 273.882 116.091 278.201 117.313C281.923 118.362 285.061 120.436 288.026 123.021C289.778 124.55 292.499 124.992 294.797 125.888C294.996 125.964 295.413 125.836 295.554 125.664C298.558 121.933 301.542 118.183 304.526 114.44L304.533 114.446Z" fill="#A57F4B"/>
<path d="M225.723 124.979C227.129 124.883 228.598 125.017 229.94 124.659C239.342 122.17 248.923 121.914 258.531 122.4C266.482 122.803 274.414 123.552 282.359 124.141C282.976 124.185 283.604 124.141 284.471 123.782C283.675 123.219 282.937 122.554 282.083 122.099C276.032 118.874 269.55 117.345 262.689 116.987C251.67 116.411 240.972 117.691 230.691 121.818C228.939 122.522 227.251 123.398 225.537 124.192C225.601 124.448 225.659 124.71 225.723 124.966V124.979Z" fill="#F5F5F5"/>
<path d="M294.162 128.588C293.725 129.023 293.295 129.465 292.705 130.053C293.526 130.655 294.393 131.295 295.259 131.935L295.111 132.408C294.309 132.581 293.507 132.754 292.705 132.92C292.949 133.33 293.192 133.745 293.43 134.155C293.642 134.52 294.059 134.936 293.995 135.243C293.924 135.563 293.404 135.806 293.045 136.036C292.487 136.388 291.903 136.702 291.331 137.034C291.922 137.521 292.48 138.058 293.115 138.487C293.533 138.769 294.052 138.897 294.919 139.479C295.599 138.263 296.279 137.054 296.96 135.838C297.184 136.062 297.415 136.292 297.64 136.516C298.115 136.951 298.59 137.386 299.065 137.822C300.438 135.761 301.805 133.707 303.384 131.339C300.387 130.444 297.274 129.516 294.155 128.588H294.162Z" fill="#EDF7E3"/>
<path d="M292.679 51.833C293.192 51.4747 293.776 50.7324 294.2 50.8156C299.232 51.7882 304.147 53.164 307.992 56.7986C309.558 58.2831 310.777 60.1196 312.24 61.7193C312.644 62.1609 313.363 62.3208 313.941 62.6152C314.525 59.4477 313.184 56.2675 310.142 54.5462C305.11 51.6986 299.764 49.6958 293.886 49.4398C292.846 49.395 291.8 49.3247 290.76 49.2799C290.683 49.2799 290.593 49.395 290.369 49.5614C291.152 50.3293 291.915 51.0844 292.685 51.8394L292.679 51.833Z" fill="#ED5D7F"/>
<path d="M222.848 49.9326C220.076 46.8291 220.859 43.5976 222.482 40.3342C221.468 40.9357 220.262 41.3516 219.479 42.1707C216.026 45.7797 214.242 50.0669 214.499 55.0133C217.329 53.292 220.089 51.6155 222.848 49.9326Z" fill="#AE455F"/>
<path d="M228.759 36.1301C227.995 36.0853 227.238 36.0149 226.474 36.0085C225.8 36.0021 225.127 36.0597 224.331 36.0981C224.536 32.9818 226.019 30.6206 227.655 28.3234C227.944 27.9203 228.13 27.4468 228.367 27.0053C223.111 28.9761 217.477 36.0021 217.393 40.443C221.122 39.0288 224.934 37.5827 228.753 36.1365L228.759 36.1301Z" fill="#AE455F"/>
<path d="M310.199 78.7532C314.672 75.2978 317.573 69.1613 316.039 63.3831C314.705 65.6547 313.569 68.4446 311.682 70.569C309.404 73.135 308.428 75.5666 310.199 78.7468V78.7532Z" fill="#ED5D7F"/>
<path d="M283.617 126.252C284.593 126.713 285.562 127.174 286.467 127.603C285.96 128.198 284.862 128.422 283.72 127.718C281.641 126.432 279.427 127.123 277.277 127.123C276.32 127.123 275.364 127.494 273.824 127.814C277.373 129.298 280.53 130.616 283.906 132.024C284.041 131.826 284.227 131.288 284.606 131.045C285.241 130.623 285.979 130.277 286.717 130.104C287.314 129.964 287.988 130.149 288.623 130.136C289.663 130.117 290.221 129.618 290.26 128.53C290.266 128.23 290.523 127.935 290.67 127.634C288.321 127.174 285.973 126.713 283.624 126.259L283.617 126.252Z" fill="#EDF7E3"/>
<path d="M308.614 71.1129C304.648 71.0809 301.073 69.8524 297.704 67.7855C297.088 67.408 296.01 67.7855 295.143 67.8111C295.336 69.7564 293.321 69.2189 292.39 70.3067C297.473 72.2007 302.363 74.5044 307.793 71.7208C308.094 71.5673 308.338 71.3177 308.614 71.1129Z" fill="#AE455F"/>
<path d="M292.012 68.163C290.317 67.9391 288.63 67.7087 286.935 67.4848C281.731 66.8001 276.532 66.1026 271.327 65.4371C270.525 65.3347 269.704 65.3795 268.895 65.3539C267.868 65.9874 268.324 66.269 269.165 66.4481C271.655 66.9856 274.126 67.8111 276.641 67.9839C281.544 68.323 286.48 68.2974 291.402 68.4062C291.607 68.4062 291.819 68.2398 292.024 68.1502L292.012 68.163Z" fill="#AE455F"/>
<path d="M221.071 128.057C222.726 128.473 224.369 129.023 226.057 129.241C226.904 129.349 227.982 129.061 228.675 128.562C229.664 127.858 230.415 127.705 231.486 128.345C233.47 129.529 233.643 129.394 233.649 127.142C233.649 126.681 233.649 126.214 233.649 125.753C229.452 126.521 225.261 127.289 221.064 128.057H221.071Z" fill="#EDF7E3"/>
<path d="M242.762 22.7884C242.403 22.59 242.063 22.2573 241.684 22.2061C239.598 21.9245 237.493 21.7454 235.408 21.451C235.01 21.3934 234.663 20.9647 234.291 20.7087C232.796 21.4318 231.294 22.1613 229.799 22.8844C229.869 22.9612 229.94 23.0315 230.017 23.1083C234.265 22.9995 238.514 22.8908 242.769 22.7884H242.762Z" fill="#AE455F"/>
<path d="M308.197 109.897C311.804 106.678 311.278 102.813 310.366 98.8714C309.654 102.493 308.941 106.115 308.197 109.897Z" fill="#E6AE66"/>
<path d="M303.538 45.1654C304.25 45.7925 304.943 46.4515 305.681 47.053C307.183 48.2752 308.71 49.4782 310.225 50.6812C308.678 48.0193 306.285 46.3812 303.538 45.1654Z" fill="#AE455F"/>
<path d="M299.36 41.9787C298.429 41.614 297.492 41.2492 296.562 40.8909C296.472 41.1149 296.382 41.3388 296.286 41.5692C297.313 41.9531 298.333 42.337 299.36 42.7146C299.36 42.4714 299.36 42.2283 299.36 41.9851V41.9787Z" fill="#AE455F"/>
<path d="M310.231 50.7004C310.187 51.3083 310.148 51.9162 310.103 52.5177C310.469 52.7417 310.841 52.9656 311.207 53.196L311.303 53.1C310.944 52.3001 310.591 51.5003 310.231 50.7004Z" fill="#AE455F"/>
<path d="M290.677 127.622C291.177 128.953 292.153 128.556 293.096 128.287C292.288 128.063 291.479 127.839 290.677 127.622Z" fill="#EDF7E3"/>
<path d="M205.726 136.062C206.008 135.959 206.291 135.857 206.567 135.761C206.374 135.62 206.175 135.486 205.983 135.345C205.899 135.582 205.809 135.825 205.726 136.062Z" fill="#F2FDE8"/>
<path d="M298.596 138.845C298.314 138.967 298.031 139.089 297.749 139.217C297.929 139.325 298.108 139.434 298.282 139.549C298.384 139.319 298.487 139.082 298.596 138.852V138.845Z" fill="#EDF7E3"/>
<path d="M311.207 53.196L311.399 53.3176C311.367 53.2472 311.329 53.1768 311.297 53.1L311.207 53.196Z" fill="#AE455F"/>
<path d="M276.667 125.459C276.847 125.484 277.026 125.51 277.2 125.536C277.02 125.51 276.84 125.484 276.667 125.459Z" fill="#EDF7E3"/>
<path d="M292.705 132.926C292.788 131.717 292.063 131.48 291.055 131.525C290.382 131.557 289.708 131.525 289.06 131.525C288.97 132.773 288.899 133.79 288.835 134.699C290.035 134.149 291.363 133.534 292.698 132.92L292.705 132.926Z" fill="#EDF7E3"/>
<path d="M294.11 28.2594C289.996 24.5865 272.418 21.3102 270.243 23.9018C270.666 24.0234 271.026 24.2025 271.392 24.2089C278.483 24.3433 285.17 26.2054 291.633 28.9761C292.711 29.4432 293.481 29.4688 294.11 28.253V28.2594Z" fill="#0D0A0A"/>
</svg>
